%TF.GenerationSoftware,KiCad,Pcbnew,8.0.8*%
%TF.CreationDate,2025-01-25T22:43:30+07:00*%
%TF.ProjectId,Pton1,50746f6e-312e-46b6-9963-61645f706362,rev?*%
%TF.SameCoordinates,Original*%
%TF.FileFunction,Drillmap*%
%TF.FilePolarity,Positive*%
%FSLAX45Y45*%
G04 Gerber Fmt 4.5, Leading zero omitted, Abs format (unit mm)*
G04 Created by KiCad (PCBNEW 8.0.8) date 2025-01-25 22:43:30*
%MOMM*%
%LPD*%
G01*
G04 APERTURE LIST*
%ADD10C,0.050000*%
%ADD11C,0.200000*%
G04 APERTURE END LIST*
D10*
X8763000Y-4191000D02*
X10668000Y-4191000D01*
X10668000Y-6985000D01*
X8763000Y-6985000D01*
X8763000Y-4191000D01*
D11*
X9021277Y-7298984D02*
X9021277Y-7098984D01*
X9021277Y-7098984D02*
X9068896Y-7098984D01*
X9068896Y-7098984D02*
X9097467Y-7108508D01*
X9097467Y-7108508D02*
X9116515Y-7127555D01*
X9116515Y-7127555D02*
X9126039Y-7146603D01*
X9126039Y-7146603D02*
X9135563Y-7184698D01*
X9135563Y-7184698D02*
X9135563Y-7213269D01*
X9135563Y-7213269D02*
X9126039Y-7251365D01*
X9126039Y-7251365D02*
X9116515Y-7270412D01*
X9116515Y-7270412D02*
X9097467Y-7289460D01*
X9097467Y-7289460D02*
X9068896Y-7298984D01*
X9068896Y-7298984D02*
X9021277Y-7298984D01*
X9221277Y-7298984D02*
X9221277Y-7165650D01*
X9221277Y-7203746D02*
X9230801Y-7184698D01*
X9230801Y-7184698D02*
X9240324Y-7175174D01*
X9240324Y-7175174D02*
X9259372Y-7165650D01*
X9259372Y-7165650D02*
X9278420Y-7165650D01*
X9345086Y-7298984D02*
X9345086Y-7165650D01*
X9345086Y-7098984D02*
X9335563Y-7108508D01*
X9335563Y-7108508D02*
X9345086Y-7118031D01*
X9345086Y-7118031D02*
X9354610Y-7108508D01*
X9354610Y-7108508D02*
X9345086Y-7098984D01*
X9345086Y-7098984D02*
X9345086Y-7118031D01*
X9468896Y-7298984D02*
X9449848Y-7289460D01*
X9449848Y-7289460D02*
X9440324Y-7270412D01*
X9440324Y-7270412D02*
X9440324Y-7098984D01*
X9573658Y-7298984D02*
X9554610Y-7289460D01*
X9554610Y-7289460D02*
X9545086Y-7270412D01*
X9545086Y-7270412D02*
X9545086Y-7098984D01*
X9802229Y-7298984D02*
X9802229Y-7098984D01*
X9802229Y-7098984D02*
X9868896Y-7241841D01*
X9868896Y-7241841D02*
X9935563Y-7098984D01*
X9935563Y-7098984D02*
X9935563Y-7298984D01*
X10116515Y-7298984D02*
X10116515Y-7194222D01*
X10116515Y-7194222D02*
X10106991Y-7175174D01*
X10106991Y-7175174D02*
X10087944Y-7165650D01*
X10087944Y-7165650D02*
X10049848Y-7165650D01*
X10049848Y-7165650D02*
X10030801Y-7175174D01*
X10116515Y-7289460D02*
X10097467Y-7298984D01*
X10097467Y-7298984D02*
X10049848Y-7298984D01*
X10049848Y-7298984D02*
X10030801Y-7289460D01*
X10030801Y-7289460D02*
X10021277Y-7270412D01*
X10021277Y-7270412D02*
X10021277Y-7251365D01*
X10021277Y-7251365D02*
X10030801Y-7232317D01*
X10030801Y-7232317D02*
X10049848Y-7222793D01*
X10049848Y-7222793D02*
X10097467Y-7222793D01*
X10097467Y-7222793D02*
X10116515Y-7213269D01*
X10211753Y-7165650D02*
X10211753Y-7365650D01*
X10211753Y-7175174D02*
X10230801Y-7165650D01*
X10230801Y-7165650D02*
X10268896Y-7165650D01*
X10268896Y-7165650D02*
X10287944Y-7175174D01*
X10287944Y-7175174D02*
X10297467Y-7184698D01*
X10297467Y-7184698D02*
X10306991Y-7203746D01*
X10306991Y-7203746D02*
X10306991Y-7260888D01*
X10306991Y-7260888D02*
X10297467Y-7279936D01*
X10297467Y-7279936D02*
X10287944Y-7289460D01*
X10287944Y-7289460D02*
X10268896Y-7298984D01*
X10268896Y-7298984D02*
X10230801Y-7298984D01*
X10230801Y-7298984D02*
X10211753Y-7289460D01*
X10392705Y-7279936D02*
X10402229Y-7289460D01*
X10402229Y-7289460D02*
X10392705Y-7298984D01*
X10392705Y-7298984D02*
X10383182Y-7289460D01*
X10383182Y-7289460D02*
X10392705Y-7279936D01*
X10392705Y-7279936D02*
X10392705Y-7298984D01*
X10392705Y-7175174D02*
X10402229Y-7184698D01*
X10402229Y-7184698D02*
X10392705Y-7194222D01*
X10392705Y-7194222D02*
X10383182Y-7184698D01*
X10383182Y-7184698D02*
X10392705Y-7175174D01*
X10392705Y-7175174D02*
X10392705Y-7194222D01*
M02*
