%TF.GenerationSoftware,KiCad,Pcbnew,8.0.8*%
%TF.CreationDate,2025-01-25T22:43:30+07:00*%
%TF.ProjectId,Pton1,50746f6e-312e-46b6-9963-61645f706362,rev?*%
%TF.SameCoordinates,Original*%
%TF.FileFunction,Drillmap*%
%TF.FilePolarity,Positive*%
%FSLAX45Y45*%
G04 Gerber Fmt 4.5, Leading zero omitted, Abs format (unit mm)*
G04 Created by KiCad (PCBNEW 8.0.8) date 2025-01-25 22:43:30*
%MOMM*%
%LPD*%
G01*
G04 APERTURE LIST*
%ADD10C,0.050000*%
%ADD11C,0.200000*%
%ADD12C,0.100000*%
G04 APERTURE END LIST*
D10*
X8763000Y-4191000D02*
X10668000Y-4191000D01*
X10668000Y-6985000D01*
X8763000Y-6985000D01*
X8763000Y-4191000D01*
D11*
D12*
X9637000Y-5446000D02*
X9667000Y-5476000D01*
X9667000Y-5446000D02*
X9637000Y-5476000D01*
X9764000Y-5954000D02*
X9794000Y-5984000D01*
X9794000Y-5954000D02*
X9764000Y-5984000D01*
X9764000Y-6843000D02*
X9794000Y-6873000D01*
X9794000Y-6843000D02*
X9764000Y-6873000D01*
X9891000Y-6843000D02*
X9921000Y-6873000D01*
X9921000Y-6843000D02*
X9891000Y-6873000D01*
X10018000Y-4684000D02*
X10048000Y-4714000D01*
X10048000Y-4684000D02*
X10018000Y-4714000D01*
X10018000Y-5446000D02*
X10048000Y-5476000D01*
X10048000Y-5446000D02*
X10018000Y-5476000D01*
X10018000Y-5827000D02*
X10048000Y-5857000D01*
X10048000Y-5827000D02*
X10018000Y-5857000D01*
X10145000Y-5954000D02*
X10175000Y-5984000D01*
X10175000Y-5954000D02*
X10145000Y-5984000D01*
X9067000Y-4445000D02*
G75*
G02*
X8967000Y-4445000I-50000J0D01*
G01*
X8967000Y-4445000D02*
G75*
G02*
X9067000Y-4445000I50000J0D01*
G01*
X9067000Y-4699000D02*
G75*
G02*
X8967000Y-4699000I-50000J0D01*
G01*
X8967000Y-4699000D02*
G75*
G02*
X9067000Y-4699000I50000J0D01*
G01*
X9067000Y-4953000D02*
G75*
G02*
X8967000Y-4953000I-50000J0D01*
G01*
X8967000Y-4953000D02*
G75*
G02*
X9067000Y-4953000I50000J0D01*
G01*
X9067000Y-5207000D02*
G75*
G02*
X8967000Y-5207000I-50000J0D01*
G01*
X8967000Y-5207000D02*
G75*
G02*
X9067000Y-5207000I50000J0D01*
G01*
X9067000Y-5461000D02*
G75*
G02*
X8967000Y-5461000I-50000J0D01*
G01*
X8967000Y-5461000D02*
G75*
G02*
X9067000Y-5461000I50000J0D01*
G01*
X9067000Y-5715000D02*
G75*
G02*
X8967000Y-5715000I-50000J0D01*
G01*
X8967000Y-5715000D02*
G75*
G02*
X9067000Y-5715000I50000J0D01*
G01*
X9067000Y-5969000D02*
G75*
G02*
X8967000Y-5969000I-50000J0D01*
G01*
X8967000Y-5969000D02*
G75*
G02*
X9067000Y-5969000I50000J0D01*
G01*
X9067000Y-6223000D02*
G75*
G02*
X8967000Y-6223000I-50000J0D01*
G01*
X8967000Y-6223000D02*
G75*
G02*
X9067000Y-6223000I50000J0D01*
G01*
X9067000Y-6477000D02*
G75*
G02*
X8967000Y-6477000I-50000J0D01*
G01*
X8967000Y-6477000D02*
G75*
G02*
X9067000Y-6477000I50000J0D01*
G01*
X9067000Y-6731000D02*
G75*
G02*
X8967000Y-6731000I-50000J0D01*
G01*
X8967000Y-6731000D02*
G75*
G02*
X9067000Y-6731000I50000J0D01*
G01*
D11*
X9021277Y-7298984D02*
X9021277Y-7098984D01*
X9021277Y-7098984D02*
X9068896Y-7098984D01*
X9068896Y-7098984D02*
X9097467Y-7108508D01*
X9097467Y-7108508D02*
X9116515Y-7127555D01*
X9116515Y-7127555D02*
X9126039Y-7146603D01*
X9126039Y-7146603D02*
X9135563Y-7184698D01*
X9135563Y-7184698D02*
X9135563Y-7213269D01*
X9135563Y-7213269D02*
X9126039Y-7251365D01*
X9126039Y-7251365D02*
X9116515Y-7270412D01*
X9116515Y-7270412D02*
X9097467Y-7289460D01*
X9097467Y-7289460D02*
X9068896Y-7298984D01*
X9068896Y-7298984D02*
X9021277Y-7298984D01*
X9221277Y-7298984D02*
X9221277Y-7165650D01*
X9221277Y-7203746D02*
X9230801Y-7184698D01*
X9230801Y-7184698D02*
X9240324Y-7175174D01*
X9240324Y-7175174D02*
X9259372Y-7165650D01*
X9259372Y-7165650D02*
X9278420Y-7165650D01*
X9345086Y-7298984D02*
X9345086Y-7165650D01*
X9345086Y-7098984D02*
X9335563Y-7108508D01*
X9335563Y-7108508D02*
X9345086Y-7118031D01*
X9345086Y-7118031D02*
X9354610Y-7108508D01*
X9354610Y-7108508D02*
X9345086Y-7098984D01*
X9345086Y-7098984D02*
X9345086Y-7118031D01*
X9468896Y-7298984D02*
X9449848Y-7289460D01*
X9449848Y-7289460D02*
X9440324Y-7270412D01*
X9440324Y-7270412D02*
X9440324Y-7098984D01*
X9573658Y-7298984D02*
X9554610Y-7289460D01*
X9554610Y-7289460D02*
X9545086Y-7270412D01*
X9545086Y-7270412D02*
X9545086Y-7098984D01*
X9802229Y-7298984D02*
X9802229Y-7098984D01*
X9802229Y-7098984D02*
X9868896Y-7241841D01*
X9868896Y-7241841D02*
X9935563Y-7098984D01*
X9935563Y-7098984D02*
X9935563Y-7298984D01*
X10116515Y-7298984D02*
X10116515Y-7194222D01*
X10116515Y-7194222D02*
X10106991Y-7175174D01*
X10106991Y-7175174D02*
X10087944Y-7165650D01*
X10087944Y-7165650D02*
X10049848Y-7165650D01*
X10049848Y-7165650D02*
X10030801Y-7175174D01*
X10116515Y-7289460D02*
X10097467Y-7298984D01*
X10097467Y-7298984D02*
X10049848Y-7298984D01*
X10049848Y-7298984D02*
X10030801Y-7289460D01*
X10030801Y-7289460D02*
X10021277Y-7270412D01*
X10021277Y-7270412D02*
X10021277Y-7251365D01*
X10021277Y-7251365D02*
X10030801Y-7232317D01*
X10030801Y-7232317D02*
X10049848Y-7222793D01*
X10049848Y-7222793D02*
X10097467Y-7222793D01*
X10097467Y-7222793D02*
X10116515Y-7213269D01*
X10211753Y-7165650D02*
X10211753Y-7365650D01*
X10211753Y-7175174D02*
X10230801Y-7165650D01*
X10230801Y-7165650D02*
X10268896Y-7165650D01*
X10268896Y-7165650D02*
X10287944Y-7175174D01*
X10287944Y-7175174D02*
X10297467Y-7184698D01*
X10297467Y-7184698D02*
X10306991Y-7203746D01*
X10306991Y-7203746D02*
X10306991Y-7260888D01*
X10306991Y-7260888D02*
X10297467Y-7279936D01*
X10297467Y-7279936D02*
X10287944Y-7289460D01*
X10287944Y-7289460D02*
X10268896Y-7298984D01*
X10268896Y-7298984D02*
X10230801Y-7298984D01*
X10230801Y-7298984D02*
X10211753Y-7289460D01*
X10392705Y-7279936D02*
X10402229Y-7289460D01*
X10402229Y-7289460D02*
X10392705Y-7298984D01*
X10392705Y-7298984D02*
X10383182Y-7289460D01*
X10383182Y-7289460D02*
X10392705Y-7279936D01*
X10392705Y-7279936D02*
X10392705Y-7298984D01*
X10392705Y-7175174D02*
X10402229Y-7184698D01*
X10402229Y-7184698D02*
X10392705Y-7194222D01*
X10392705Y-7194222D02*
X10383182Y-7184698D01*
X10383182Y-7184698D02*
X10392705Y-7175174D01*
X10392705Y-7175174D02*
X10392705Y-7194222D01*
D12*
X8730500Y-7612500D02*
X8760500Y-7642500D01*
X8760500Y-7612500D02*
X8730500Y-7642500D01*
D11*
X9059372Y-7518984D02*
X9078420Y-7518984D01*
X9078420Y-7518984D02*
X9097467Y-7528508D01*
X9097467Y-7528508D02*
X9106991Y-7538031D01*
X9106991Y-7538031D02*
X9116515Y-7557079D01*
X9116515Y-7557079D02*
X9126039Y-7595174D01*
X9126039Y-7595174D02*
X9126039Y-7642793D01*
X9126039Y-7642793D02*
X9116515Y-7680888D01*
X9116515Y-7680888D02*
X9106991Y-7699936D01*
X9106991Y-7699936D02*
X9097467Y-7709460D01*
X9097467Y-7709460D02*
X9078420Y-7718984D01*
X9078420Y-7718984D02*
X9059372Y-7718984D01*
X9059372Y-7718984D02*
X9040324Y-7709460D01*
X9040324Y-7709460D02*
X9030801Y-7699936D01*
X9030801Y-7699936D02*
X9021277Y-7680888D01*
X9021277Y-7680888D02*
X9011753Y-7642793D01*
X9011753Y-7642793D02*
X9011753Y-7595174D01*
X9011753Y-7595174D02*
X9021277Y-7557079D01*
X9021277Y-7557079D02*
X9030801Y-7538031D01*
X9030801Y-7538031D02*
X9040324Y-7528508D01*
X9040324Y-7528508D02*
X9059372Y-7518984D01*
X9211753Y-7699936D02*
X9221277Y-7709460D01*
X9221277Y-7709460D02*
X9211753Y-7718984D01*
X9211753Y-7718984D02*
X9202229Y-7709460D01*
X9202229Y-7709460D02*
X9211753Y-7699936D01*
X9211753Y-7699936D02*
X9211753Y-7718984D01*
X9287944Y-7518984D02*
X9411753Y-7518984D01*
X9411753Y-7518984D02*
X9345086Y-7595174D01*
X9345086Y-7595174D02*
X9373658Y-7595174D01*
X9373658Y-7595174D02*
X9392705Y-7604698D01*
X9392705Y-7604698D02*
X9402229Y-7614222D01*
X9402229Y-7614222D02*
X9411753Y-7633269D01*
X9411753Y-7633269D02*
X9411753Y-7680888D01*
X9411753Y-7680888D02*
X9402229Y-7699936D01*
X9402229Y-7699936D02*
X9392705Y-7709460D01*
X9392705Y-7709460D02*
X9373658Y-7718984D01*
X9373658Y-7718984D02*
X9316515Y-7718984D01*
X9316515Y-7718984D02*
X9297467Y-7709460D01*
X9297467Y-7709460D02*
X9287944Y-7699936D01*
X9535563Y-7518984D02*
X9554610Y-7518984D01*
X9554610Y-7518984D02*
X9573658Y-7528508D01*
X9573658Y-7528508D02*
X9583182Y-7538031D01*
X9583182Y-7538031D02*
X9592705Y-7557079D01*
X9592705Y-7557079D02*
X9602229Y-7595174D01*
X9602229Y-7595174D02*
X9602229Y-7642793D01*
X9602229Y-7642793D02*
X9592705Y-7680888D01*
X9592705Y-7680888D02*
X9583182Y-7699936D01*
X9583182Y-7699936D02*
X9573658Y-7709460D01*
X9573658Y-7709460D02*
X9554610Y-7718984D01*
X9554610Y-7718984D02*
X9535563Y-7718984D01*
X9535563Y-7718984D02*
X9516515Y-7709460D01*
X9516515Y-7709460D02*
X9506991Y-7699936D01*
X9506991Y-7699936D02*
X9497467Y-7680888D01*
X9497467Y-7680888D02*
X9487944Y-7642793D01*
X9487944Y-7642793D02*
X9487944Y-7595174D01*
X9487944Y-7595174D02*
X9497467Y-7557079D01*
X9497467Y-7557079D02*
X9506991Y-7538031D01*
X9506991Y-7538031D02*
X9516515Y-7528508D01*
X9516515Y-7528508D02*
X9535563Y-7518984D01*
X9726039Y-7518984D02*
X9745086Y-7518984D01*
X9745086Y-7518984D02*
X9764134Y-7528508D01*
X9764134Y-7528508D02*
X9773658Y-7538031D01*
X9773658Y-7538031D02*
X9783182Y-7557079D01*
X9783182Y-7557079D02*
X9792705Y-7595174D01*
X9792705Y-7595174D02*
X9792705Y-7642793D01*
X9792705Y-7642793D02*
X9783182Y-7680888D01*
X9783182Y-7680888D02*
X9773658Y-7699936D01*
X9773658Y-7699936D02*
X9764134Y-7709460D01*
X9764134Y-7709460D02*
X9745086Y-7718984D01*
X9745086Y-7718984D02*
X9726039Y-7718984D01*
X9726039Y-7718984D02*
X9706991Y-7709460D01*
X9706991Y-7709460D02*
X9697467Y-7699936D01*
X9697467Y-7699936D02*
X9687944Y-7680888D01*
X9687944Y-7680888D02*
X9678420Y-7642793D01*
X9678420Y-7642793D02*
X9678420Y-7595174D01*
X9678420Y-7595174D02*
X9687944Y-7557079D01*
X9687944Y-7557079D02*
X9697467Y-7538031D01*
X9697467Y-7538031D02*
X9706991Y-7528508D01*
X9706991Y-7528508D02*
X9726039Y-7518984D01*
X9878420Y-7718984D02*
X9878420Y-7585650D01*
X9878420Y-7604698D02*
X9887944Y-7595174D01*
X9887944Y-7595174D02*
X9906991Y-7585650D01*
X9906991Y-7585650D02*
X9935563Y-7585650D01*
X9935563Y-7585650D02*
X9954610Y-7595174D01*
X9954610Y-7595174D02*
X9964134Y-7614222D01*
X9964134Y-7614222D02*
X9964134Y-7718984D01*
X9964134Y-7614222D02*
X9973658Y-7595174D01*
X9973658Y-7595174D02*
X9992705Y-7585650D01*
X9992705Y-7585650D02*
X10021277Y-7585650D01*
X10021277Y-7585650D02*
X10040325Y-7595174D01*
X10040325Y-7595174D02*
X10049848Y-7614222D01*
X10049848Y-7614222D02*
X10049848Y-7718984D01*
X10145086Y-7718984D02*
X10145086Y-7585650D01*
X10145086Y-7604698D02*
X10154610Y-7595174D01*
X10154610Y-7595174D02*
X10173658Y-7585650D01*
X10173658Y-7585650D02*
X10202229Y-7585650D01*
X10202229Y-7585650D02*
X10221277Y-7595174D01*
X10221277Y-7595174D02*
X10230801Y-7614222D01*
X10230801Y-7614222D02*
X10230801Y-7718984D01*
X10230801Y-7614222D02*
X10240325Y-7595174D01*
X10240325Y-7595174D02*
X10259372Y-7585650D01*
X10259372Y-7585650D02*
X10287944Y-7585650D01*
X10287944Y-7585650D02*
X10306991Y-7595174D01*
X10306991Y-7595174D02*
X10316515Y-7614222D01*
X10316515Y-7614222D02*
X10316515Y-7718984D01*
X10706991Y-7509460D02*
X10535563Y-7766603D01*
X10964134Y-7518984D02*
X10983182Y-7518984D01*
X10983182Y-7518984D02*
X11002229Y-7528508D01*
X11002229Y-7528508D02*
X11011753Y-7538031D01*
X11011753Y-7538031D02*
X11021277Y-7557079D01*
X11021277Y-7557079D02*
X11030801Y-7595174D01*
X11030801Y-7595174D02*
X11030801Y-7642793D01*
X11030801Y-7642793D02*
X11021277Y-7680888D01*
X11021277Y-7680888D02*
X11011753Y-7699936D01*
X11011753Y-7699936D02*
X11002229Y-7709460D01*
X11002229Y-7709460D02*
X10983182Y-7718984D01*
X10983182Y-7718984D02*
X10964134Y-7718984D01*
X10964134Y-7718984D02*
X10945087Y-7709460D01*
X10945087Y-7709460D02*
X10935563Y-7699936D01*
X10935563Y-7699936D02*
X10926039Y-7680888D01*
X10926039Y-7680888D02*
X10916515Y-7642793D01*
X10916515Y-7642793D02*
X10916515Y-7595174D01*
X10916515Y-7595174D02*
X10926039Y-7557079D01*
X10926039Y-7557079D02*
X10935563Y-7538031D01*
X10935563Y-7538031D02*
X10945087Y-7528508D01*
X10945087Y-7528508D02*
X10964134Y-7518984D01*
X11116515Y-7699936D02*
X11126039Y-7709460D01*
X11126039Y-7709460D02*
X11116515Y-7718984D01*
X11116515Y-7718984D02*
X11106991Y-7709460D01*
X11106991Y-7709460D02*
X11116515Y-7699936D01*
X11116515Y-7699936D02*
X11116515Y-7718984D01*
X11249848Y-7518984D02*
X11268896Y-7518984D01*
X11268896Y-7518984D02*
X11287944Y-7528508D01*
X11287944Y-7528508D02*
X11297467Y-7538031D01*
X11297467Y-7538031D02*
X11306991Y-7557079D01*
X11306991Y-7557079D02*
X11316515Y-7595174D01*
X11316515Y-7595174D02*
X11316515Y-7642793D01*
X11316515Y-7642793D02*
X11306991Y-7680888D01*
X11306991Y-7680888D02*
X11297467Y-7699936D01*
X11297467Y-7699936D02*
X11287944Y-7709460D01*
X11287944Y-7709460D02*
X11268896Y-7718984D01*
X11268896Y-7718984D02*
X11249848Y-7718984D01*
X11249848Y-7718984D02*
X11230801Y-7709460D01*
X11230801Y-7709460D02*
X11221277Y-7699936D01*
X11221277Y-7699936D02*
X11211753Y-7680888D01*
X11211753Y-7680888D02*
X11202229Y-7642793D01*
X11202229Y-7642793D02*
X11202229Y-7595174D01*
X11202229Y-7595174D02*
X11211753Y-7557079D01*
X11211753Y-7557079D02*
X11221277Y-7538031D01*
X11221277Y-7538031D02*
X11230801Y-7528508D01*
X11230801Y-7528508D02*
X11249848Y-7518984D01*
X11506991Y-7718984D02*
X11392706Y-7718984D01*
X11449848Y-7718984D02*
X11449848Y-7518984D01*
X11449848Y-7518984D02*
X11430801Y-7547555D01*
X11430801Y-7547555D02*
X11411753Y-7566603D01*
X11411753Y-7566603D02*
X11392706Y-7576127D01*
X11697467Y-7718984D02*
X11583182Y-7718984D01*
X11640325Y-7718984D02*
X11640325Y-7518984D01*
X11640325Y-7518984D02*
X11621277Y-7547555D01*
X11621277Y-7547555D02*
X11602229Y-7566603D01*
X11602229Y-7566603D02*
X11583182Y-7576127D01*
X11811753Y-7604698D02*
X11792706Y-7595174D01*
X11792706Y-7595174D02*
X11783182Y-7585650D01*
X11783182Y-7585650D02*
X11773658Y-7566603D01*
X11773658Y-7566603D02*
X11773658Y-7557079D01*
X11773658Y-7557079D02*
X11783182Y-7538031D01*
X11783182Y-7538031D02*
X11792706Y-7528508D01*
X11792706Y-7528508D02*
X11811753Y-7518984D01*
X11811753Y-7518984D02*
X11849848Y-7518984D01*
X11849848Y-7518984D02*
X11868896Y-7528508D01*
X11868896Y-7528508D02*
X11878420Y-7538031D01*
X11878420Y-7538031D02*
X11887944Y-7557079D01*
X11887944Y-7557079D02*
X11887944Y-7566603D01*
X11887944Y-7566603D02*
X11878420Y-7585650D01*
X11878420Y-7585650D02*
X11868896Y-7595174D01*
X11868896Y-7595174D02*
X11849848Y-7604698D01*
X11849848Y-7604698D02*
X11811753Y-7604698D01*
X11811753Y-7604698D02*
X11792706Y-7614222D01*
X11792706Y-7614222D02*
X11783182Y-7623746D01*
X11783182Y-7623746D02*
X11773658Y-7642793D01*
X11773658Y-7642793D02*
X11773658Y-7680888D01*
X11773658Y-7680888D02*
X11783182Y-7699936D01*
X11783182Y-7699936D02*
X11792706Y-7709460D01*
X11792706Y-7709460D02*
X11811753Y-7718984D01*
X11811753Y-7718984D02*
X11849848Y-7718984D01*
X11849848Y-7718984D02*
X11868896Y-7709460D01*
X11868896Y-7709460D02*
X11878420Y-7699936D01*
X11878420Y-7699936D02*
X11887944Y-7680888D01*
X11887944Y-7680888D02*
X11887944Y-7642793D01*
X11887944Y-7642793D02*
X11878420Y-7623746D01*
X11878420Y-7623746D02*
X11868896Y-7614222D01*
X11868896Y-7614222D02*
X11849848Y-7604698D01*
X11964134Y-7518984D02*
X11964134Y-7557079D01*
X12040325Y-7518984D02*
X12040325Y-7557079D01*
X12335563Y-7795174D02*
X12326039Y-7785650D01*
X12326039Y-7785650D02*
X12306991Y-7757079D01*
X12306991Y-7757079D02*
X12297468Y-7738031D01*
X12297468Y-7738031D02*
X12287944Y-7709460D01*
X12287944Y-7709460D02*
X12278420Y-7661841D01*
X12278420Y-7661841D02*
X12278420Y-7623746D01*
X12278420Y-7623746D02*
X12287944Y-7576127D01*
X12287944Y-7576127D02*
X12297468Y-7547555D01*
X12297468Y-7547555D02*
X12306991Y-7528508D01*
X12306991Y-7528508D02*
X12326039Y-7499936D01*
X12326039Y-7499936D02*
X12335563Y-7490412D01*
X12440325Y-7604698D02*
X12421277Y-7595174D01*
X12421277Y-7595174D02*
X12411753Y-7585650D01*
X12411753Y-7585650D02*
X12402229Y-7566603D01*
X12402229Y-7566603D02*
X12402229Y-7557079D01*
X12402229Y-7557079D02*
X12411753Y-7538031D01*
X12411753Y-7538031D02*
X12421277Y-7528508D01*
X12421277Y-7528508D02*
X12440325Y-7518984D01*
X12440325Y-7518984D02*
X12478420Y-7518984D01*
X12478420Y-7518984D02*
X12497468Y-7528508D01*
X12497468Y-7528508D02*
X12506991Y-7538031D01*
X12506991Y-7538031D02*
X12516515Y-7557079D01*
X12516515Y-7557079D02*
X12516515Y-7566603D01*
X12516515Y-7566603D02*
X12506991Y-7585650D01*
X12506991Y-7585650D02*
X12497468Y-7595174D01*
X12497468Y-7595174D02*
X12478420Y-7604698D01*
X12478420Y-7604698D02*
X12440325Y-7604698D01*
X12440325Y-7604698D02*
X12421277Y-7614222D01*
X12421277Y-7614222D02*
X12411753Y-7623746D01*
X12411753Y-7623746D02*
X12402229Y-7642793D01*
X12402229Y-7642793D02*
X12402229Y-7680888D01*
X12402229Y-7680888D02*
X12411753Y-7699936D01*
X12411753Y-7699936D02*
X12421277Y-7709460D01*
X12421277Y-7709460D02*
X12440325Y-7718984D01*
X12440325Y-7718984D02*
X12478420Y-7718984D01*
X12478420Y-7718984D02*
X12497468Y-7709460D01*
X12497468Y-7709460D02*
X12506991Y-7699936D01*
X12506991Y-7699936D02*
X12516515Y-7680888D01*
X12516515Y-7680888D02*
X12516515Y-7642793D01*
X12516515Y-7642793D02*
X12506991Y-7623746D01*
X12506991Y-7623746D02*
X12497468Y-7614222D01*
X12497468Y-7614222D02*
X12478420Y-7604698D01*
X12754610Y-7718984D02*
X12754610Y-7518984D01*
X12840325Y-7718984D02*
X12840325Y-7614222D01*
X12840325Y-7614222D02*
X12830801Y-7595174D01*
X12830801Y-7595174D02*
X12811753Y-7585650D01*
X12811753Y-7585650D02*
X12783182Y-7585650D01*
X12783182Y-7585650D02*
X12764134Y-7595174D01*
X12764134Y-7595174D02*
X12754610Y-7604698D01*
X12964134Y-7718984D02*
X12945087Y-7709460D01*
X12945087Y-7709460D02*
X12935563Y-7699936D01*
X12935563Y-7699936D02*
X12926039Y-7680888D01*
X12926039Y-7680888D02*
X12926039Y-7623746D01*
X12926039Y-7623746D02*
X12935563Y-7604698D01*
X12935563Y-7604698D02*
X12945087Y-7595174D01*
X12945087Y-7595174D02*
X12964134Y-7585650D01*
X12964134Y-7585650D02*
X12992706Y-7585650D01*
X12992706Y-7585650D02*
X13011753Y-7595174D01*
X13011753Y-7595174D02*
X13021277Y-7604698D01*
X13021277Y-7604698D02*
X13030801Y-7623746D01*
X13030801Y-7623746D02*
X13030801Y-7680888D01*
X13030801Y-7680888D02*
X13021277Y-7699936D01*
X13021277Y-7699936D02*
X13011753Y-7709460D01*
X13011753Y-7709460D02*
X12992706Y-7718984D01*
X12992706Y-7718984D02*
X12964134Y-7718984D01*
X13145087Y-7718984D02*
X13126039Y-7709460D01*
X13126039Y-7709460D02*
X13116515Y-7690412D01*
X13116515Y-7690412D02*
X13116515Y-7518984D01*
X13297468Y-7709460D02*
X13278420Y-7718984D01*
X13278420Y-7718984D02*
X13240325Y-7718984D01*
X13240325Y-7718984D02*
X13221277Y-7709460D01*
X13221277Y-7709460D02*
X13211753Y-7690412D01*
X13211753Y-7690412D02*
X13211753Y-7614222D01*
X13211753Y-7614222D02*
X13221277Y-7595174D01*
X13221277Y-7595174D02*
X13240325Y-7585650D01*
X13240325Y-7585650D02*
X13278420Y-7585650D01*
X13278420Y-7585650D02*
X13297468Y-7595174D01*
X13297468Y-7595174D02*
X13306991Y-7614222D01*
X13306991Y-7614222D02*
X13306991Y-7633269D01*
X13306991Y-7633269D02*
X13211753Y-7652317D01*
X13383182Y-7709460D02*
X13402230Y-7718984D01*
X13402230Y-7718984D02*
X13440325Y-7718984D01*
X13440325Y-7718984D02*
X13459372Y-7709460D01*
X13459372Y-7709460D02*
X13468896Y-7690412D01*
X13468896Y-7690412D02*
X13468896Y-7680888D01*
X13468896Y-7680888D02*
X13459372Y-7661841D01*
X13459372Y-7661841D02*
X13440325Y-7652317D01*
X13440325Y-7652317D02*
X13411753Y-7652317D01*
X13411753Y-7652317D02*
X13392706Y-7642793D01*
X13392706Y-7642793D02*
X13383182Y-7623746D01*
X13383182Y-7623746D02*
X13383182Y-7614222D01*
X13383182Y-7614222D02*
X13392706Y-7595174D01*
X13392706Y-7595174D02*
X13411753Y-7585650D01*
X13411753Y-7585650D02*
X13440325Y-7585650D01*
X13440325Y-7585650D02*
X13459372Y-7595174D01*
X13535563Y-7795174D02*
X13545087Y-7785650D01*
X13545087Y-7785650D02*
X13564134Y-7757079D01*
X13564134Y-7757079D02*
X13573658Y-7738031D01*
X13573658Y-7738031D02*
X13583182Y-7709460D01*
X13583182Y-7709460D02*
X13592706Y-7661841D01*
X13592706Y-7661841D02*
X13592706Y-7623746D01*
X13592706Y-7623746D02*
X13583182Y-7576127D01*
X13583182Y-7576127D02*
X13573658Y-7547555D01*
X13573658Y-7547555D02*
X13564134Y-7528508D01*
X13564134Y-7528508D02*
X13545087Y-7499936D01*
X13545087Y-7499936D02*
X13535563Y-7490412D01*
D12*
X8760500Y-7891500D02*
G75*
G02*
X8660500Y-7891500I-50000J0D01*
G01*
X8660500Y-7891500D02*
G75*
G02*
X8760500Y-7891500I50000J0D01*
G01*
D11*
X9126039Y-7982984D02*
X9011753Y-7982984D01*
X9068896Y-7982984D02*
X9068896Y-7782984D01*
X9068896Y-7782984D02*
X9049848Y-7811555D01*
X9049848Y-7811555D02*
X9030801Y-7830603D01*
X9030801Y-7830603D02*
X9011753Y-7840127D01*
X9211753Y-7963936D02*
X9221277Y-7973460D01*
X9221277Y-7973460D02*
X9211753Y-7982984D01*
X9211753Y-7982984D02*
X9202229Y-7973460D01*
X9202229Y-7973460D02*
X9211753Y-7963936D01*
X9211753Y-7963936D02*
X9211753Y-7982984D01*
X9345086Y-7782984D02*
X9364134Y-7782984D01*
X9364134Y-7782984D02*
X9383182Y-7792508D01*
X9383182Y-7792508D02*
X9392705Y-7802031D01*
X9392705Y-7802031D02*
X9402229Y-7821079D01*
X9402229Y-7821079D02*
X9411753Y-7859174D01*
X9411753Y-7859174D02*
X9411753Y-7906793D01*
X9411753Y-7906793D02*
X9402229Y-7944888D01*
X9402229Y-7944888D02*
X9392705Y-7963936D01*
X9392705Y-7963936D02*
X9383182Y-7973460D01*
X9383182Y-7973460D02*
X9364134Y-7982984D01*
X9364134Y-7982984D02*
X9345086Y-7982984D01*
X9345086Y-7982984D02*
X9326039Y-7973460D01*
X9326039Y-7973460D02*
X9316515Y-7963936D01*
X9316515Y-7963936D02*
X9306991Y-7944888D01*
X9306991Y-7944888D02*
X9297467Y-7906793D01*
X9297467Y-7906793D02*
X9297467Y-7859174D01*
X9297467Y-7859174D02*
X9306991Y-7821079D01*
X9306991Y-7821079D02*
X9316515Y-7802031D01*
X9316515Y-7802031D02*
X9326039Y-7792508D01*
X9326039Y-7792508D02*
X9345086Y-7782984D01*
X9535563Y-7782984D02*
X9554610Y-7782984D01*
X9554610Y-7782984D02*
X9573658Y-7792508D01*
X9573658Y-7792508D02*
X9583182Y-7802031D01*
X9583182Y-7802031D02*
X9592705Y-7821079D01*
X9592705Y-7821079D02*
X9602229Y-7859174D01*
X9602229Y-7859174D02*
X9602229Y-7906793D01*
X9602229Y-7906793D02*
X9592705Y-7944888D01*
X9592705Y-7944888D02*
X9583182Y-7963936D01*
X9583182Y-7963936D02*
X9573658Y-7973460D01*
X9573658Y-7973460D02*
X9554610Y-7982984D01*
X9554610Y-7982984D02*
X9535563Y-7982984D01*
X9535563Y-7982984D02*
X9516515Y-7973460D01*
X9516515Y-7973460D02*
X9506991Y-7963936D01*
X9506991Y-7963936D02*
X9497467Y-7944888D01*
X9497467Y-7944888D02*
X9487944Y-7906793D01*
X9487944Y-7906793D02*
X9487944Y-7859174D01*
X9487944Y-7859174D02*
X9497467Y-7821079D01*
X9497467Y-7821079D02*
X9506991Y-7802031D01*
X9506991Y-7802031D02*
X9516515Y-7792508D01*
X9516515Y-7792508D02*
X9535563Y-7782984D01*
X9726039Y-7782984D02*
X9745086Y-7782984D01*
X9745086Y-7782984D02*
X9764134Y-7792508D01*
X9764134Y-7792508D02*
X9773658Y-7802031D01*
X9773658Y-7802031D02*
X9783182Y-7821079D01*
X9783182Y-7821079D02*
X9792705Y-7859174D01*
X9792705Y-7859174D02*
X9792705Y-7906793D01*
X9792705Y-7906793D02*
X9783182Y-7944888D01*
X9783182Y-7944888D02*
X9773658Y-7963936D01*
X9773658Y-7963936D02*
X9764134Y-7973460D01*
X9764134Y-7973460D02*
X9745086Y-7982984D01*
X9745086Y-7982984D02*
X9726039Y-7982984D01*
X9726039Y-7982984D02*
X9706991Y-7973460D01*
X9706991Y-7973460D02*
X9697467Y-7963936D01*
X9697467Y-7963936D02*
X9687944Y-7944888D01*
X9687944Y-7944888D02*
X9678420Y-7906793D01*
X9678420Y-7906793D02*
X9678420Y-7859174D01*
X9678420Y-7859174D02*
X9687944Y-7821079D01*
X9687944Y-7821079D02*
X9697467Y-7802031D01*
X9697467Y-7802031D02*
X9706991Y-7792508D01*
X9706991Y-7792508D02*
X9726039Y-7782984D01*
X9878420Y-7982984D02*
X9878420Y-7849650D01*
X9878420Y-7868698D02*
X9887944Y-7859174D01*
X9887944Y-7859174D02*
X9906991Y-7849650D01*
X9906991Y-7849650D02*
X9935563Y-7849650D01*
X9935563Y-7849650D02*
X9954610Y-7859174D01*
X9954610Y-7859174D02*
X9964134Y-7878222D01*
X9964134Y-7878222D02*
X9964134Y-7982984D01*
X9964134Y-7878222D02*
X9973658Y-7859174D01*
X9973658Y-7859174D02*
X9992705Y-7849650D01*
X9992705Y-7849650D02*
X10021277Y-7849650D01*
X10021277Y-7849650D02*
X10040325Y-7859174D01*
X10040325Y-7859174D02*
X10049848Y-7878222D01*
X10049848Y-7878222D02*
X10049848Y-7982984D01*
X10145086Y-7982984D02*
X10145086Y-7849650D01*
X10145086Y-7868698D02*
X10154610Y-7859174D01*
X10154610Y-7859174D02*
X10173658Y-7849650D01*
X10173658Y-7849650D02*
X10202229Y-7849650D01*
X10202229Y-7849650D02*
X10221277Y-7859174D01*
X10221277Y-7859174D02*
X10230801Y-7878222D01*
X10230801Y-7878222D02*
X10230801Y-7982984D01*
X10230801Y-7878222D02*
X10240325Y-7859174D01*
X10240325Y-7859174D02*
X10259372Y-7849650D01*
X10259372Y-7849650D02*
X10287944Y-7849650D01*
X10287944Y-7849650D02*
X10306991Y-7859174D01*
X10306991Y-7859174D02*
X10316515Y-7878222D01*
X10316515Y-7878222D02*
X10316515Y-7982984D01*
X10706991Y-7773460D02*
X10535563Y-8030603D01*
X10964134Y-7782984D02*
X10983182Y-7782984D01*
X10983182Y-7782984D02*
X11002229Y-7792508D01*
X11002229Y-7792508D02*
X11011753Y-7802031D01*
X11011753Y-7802031D02*
X11021277Y-7821079D01*
X11021277Y-7821079D02*
X11030801Y-7859174D01*
X11030801Y-7859174D02*
X11030801Y-7906793D01*
X11030801Y-7906793D02*
X11021277Y-7944888D01*
X11021277Y-7944888D02*
X11011753Y-7963936D01*
X11011753Y-7963936D02*
X11002229Y-7973460D01*
X11002229Y-7973460D02*
X10983182Y-7982984D01*
X10983182Y-7982984D02*
X10964134Y-7982984D01*
X10964134Y-7982984D02*
X10945087Y-7973460D01*
X10945087Y-7973460D02*
X10935563Y-7963936D01*
X10935563Y-7963936D02*
X10926039Y-7944888D01*
X10926039Y-7944888D02*
X10916515Y-7906793D01*
X10916515Y-7906793D02*
X10916515Y-7859174D01*
X10916515Y-7859174D02*
X10926039Y-7821079D01*
X10926039Y-7821079D02*
X10935563Y-7802031D01*
X10935563Y-7802031D02*
X10945087Y-7792508D01*
X10945087Y-7792508D02*
X10964134Y-7782984D01*
X11116515Y-7963936D02*
X11126039Y-7973460D01*
X11126039Y-7973460D02*
X11116515Y-7982984D01*
X11116515Y-7982984D02*
X11106991Y-7973460D01*
X11106991Y-7973460D02*
X11116515Y-7963936D01*
X11116515Y-7963936D02*
X11116515Y-7982984D01*
X11249848Y-7782984D02*
X11268896Y-7782984D01*
X11268896Y-7782984D02*
X11287944Y-7792508D01*
X11287944Y-7792508D02*
X11297467Y-7802031D01*
X11297467Y-7802031D02*
X11306991Y-7821079D01*
X11306991Y-7821079D02*
X11316515Y-7859174D01*
X11316515Y-7859174D02*
X11316515Y-7906793D01*
X11316515Y-7906793D02*
X11306991Y-7944888D01*
X11306991Y-7944888D02*
X11297467Y-7963936D01*
X11297467Y-7963936D02*
X11287944Y-7973460D01*
X11287944Y-7973460D02*
X11268896Y-7982984D01*
X11268896Y-7982984D02*
X11249848Y-7982984D01*
X11249848Y-7982984D02*
X11230801Y-7973460D01*
X11230801Y-7973460D02*
X11221277Y-7963936D01*
X11221277Y-7963936D02*
X11211753Y-7944888D01*
X11211753Y-7944888D02*
X11202229Y-7906793D01*
X11202229Y-7906793D02*
X11202229Y-7859174D01*
X11202229Y-7859174D02*
X11211753Y-7821079D01*
X11211753Y-7821079D02*
X11221277Y-7802031D01*
X11221277Y-7802031D02*
X11230801Y-7792508D01*
X11230801Y-7792508D02*
X11249848Y-7782984D01*
X11383182Y-7782984D02*
X11506991Y-7782984D01*
X11506991Y-7782984D02*
X11440325Y-7859174D01*
X11440325Y-7859174D02*
X11468896Y-7859174D01*
X11468896Y-7859174D02*
X11487944Y-7868698D01*
X11487944Y-7868698D02*
X11497467Y-7878222D01*
X11497467Y-7878222D02*
X11506991Y-7897269D01*
X11506991Y-7897269D02*
X11506991Y-7944888D01*
X11506991Y-7944888D02*
X11497467Y-7963936D01*
X11497467Y-7963936D02*
X11487944Y-7973460D01*
X11487944Y-7973460D02*
X11468896Y-7982984D01*
X11468896Y-7982984D02*
X11411753Y-7982984D01*
X11411753Y-7982984D02*
X11392706Y-7973460D01*
X11392706Y-7973460D02*
X11383182Y-7963936D01*
X11602229Y-7982984D02*
X11640325Y-7982984D01*
X11640325Y-7982984D02*
X11659372Y-7973460D01*
X11659372Y-7973460D02*
X11668896Y-7963936D01*
X11668896Y-7963936D02*
X11687944Y-7935365D01*
X11687944Y-7935365D02*
X11697467Y-7897269D01*
X11697467Y-7897269D02*
X11697467Y-7821079D01*
X11697467Y-7821079D02*
X11687944Y-7802031D01*
X11687944Y-7802031D02*
X11678420Y-7792508D01*
X11678420Y-7792508D02*
X11659372Y-7782984D01*
X11659372Y-7782984D02*
X11621277Y-7782984D01*
X11621277Y-7782984D02*
X11602229Y-7792508D01*
X11602229Y-7792508D02*
X11592706Y-7802031D01*
X11592706Y-7802031D02*
X11583182Y-7821079D01*
X11583182Y-7821079D02*
X11583182Y-7868698D01*
X11583182Y-7868698D02*
X11592706Y-7887746D01*
X11592706Y-7887746D02*
X11602229Y-7897269D01*
X11602229Y-7897269D02*
X11621277Y-7906793D01*
X11621277Y-7906793D02*
X11659372Y-7906793D01*
X11659372Y-7906793D02*
X11678420Y-7897269D01*
X11678420Y-7897269D02*
X11687944Y-7887746D01*
X11687944Y-7887746D02*
X11697467Y-7868698D01*
X11868896Y-7849650D02*
X11868896Y-7982984D01*
X11821277Y-7773460D02*
X11773658Y-7916317D01*
X11773658Y-7916317D02*
X11897467Y-7916317D01*
X11964134Y-7782984D02*
X11964134Y-7821079D01*
X12040325Y-7782984D02*
X12040325Y-7821079D01*
X12335563Y-8059174D02*
X12326039Y-8049650D01*
X12326039Y-8049650D02*
X12306991Y-8021079D01*
X12306991Y-8021079D02*
X12297468Y-8002031D01*
X12297468Y-8002031D02*
X12287944Y-7973460D01*
X12287944Y-7973460D02*
X12278420Y-7925841D01*
X12278420Y-7925841D02*
X12278420Y-7887746D01*
X12278420Y-7887746D02*
X12287944Y-7840127D01*
X12287944Y-7840127D02*
X12297468Y-7811555D01*
X12297468Y-7811555D02*
X12306991Y-7792508D01*
X12306991Y-7792508D02*
X12326039Y-7763936D01*
X12326039Y-7763936D02*
X12335563Y-7754412D01*
X12516515Y-7982984D02*
X12402229Y-7982984D01*
X12459372Y-7982984D02*
X12459372Y-7782984D01*
X12459372Y-7782984D02*
X12440325Y-7811555D01*
X12440325Y-7811555D02*
X12421277Y-7830603D01*
X12421277Y-7830603D02*
X12402229Y-7840127D01*
X12640325Y-7782984D02*
X12659372Y-7782984D01*
X12659372Y-7782984D02*
X12678420Y-7792508D01*
X12678420Y-7792508D02*
X12687944Y-7802031D01*
X12687944Y-7802031D02*
X12697468Y-7821079D01*
X12697468Y-7821079D02*
X12706991Y-7859174D01*
X12706991Y-7859174D02*
X12706991Y-7906793D01*
X12706991Y-7906793D02*
X12697468Y-7944888D01*
X12697468Y-7944888D02*
X12687944Y-7963936D01*
X12687944Y-7963936D02*
X12678420Y-7973460D01*
X12678420Y-7973460D02*
X12659372Y-7982984D01*
X12659372Y-7982984D02*
X12640325Y-7982984D01*
X12640325Y-7982984D02*
X12621277Y-7973460D01*
X12621277Y-7973460D02*
X12611753Y-7963936D01*
X12611753Y-7963936D02*
X12602229Y-7944888D01*
X12602229Y-7944888D02*
X12592706Y-7906793D01*
X12592706Y-7906793D02*
X12592706Y-7859174D01*
X12592706Y-7859174D02*
X12602229Y-7821079D01*
X12602229Y-7821079D02*
X12611753Y-7802031D01*
X12611753Y-7802031D02*
X12621277Y-7792508D01*
X12621277Y-7792508D02*
X12640325Y-7782984D01*
X12945087Y-7982984D02*
X12945087Y-7782984D01*
X13030801Y-7982984D02*
X13030801Y-7878222D01*
X13030801Y-7878222D02*
X13021277Y-7859174D01*
X13021277Y-7859174D02*
X13002230Y-7849650D01*
X13002230Y-7849650D02*
X12973658Y-7849650D01*
X12973658Y-7849650D02*
X12954610Y-7859174D01*
X12954610Y-7859174D02*
X12945087Y-7868698D01*
X13154610Y-7982984D02*
X13135563Y-7973460D01*
X13135563Y-7973460D02*
X13126039Y-7963936D01*
X13126039Y-7963936D02*
X13116515Y-7944888D01*
X13116515Y-7944888D02*
X13116515Y-7887746D01*
X13116515Y-7887746D02*
X13126039Y-7868698D01*
X13126039Y-7868698D02*
X13135563Y-7859174D01*
X13135563Y-7859174D02*
X13154610Y-7849650D01*
X13154610Y-7849650D02*
X13183182Y-7849650D01*
X13183182Y-7849650D02*
X13202230Y-7859174D01*
X13202230Y-7859174D02*
X13211753Y-7868698D01*
X13211753Y-7868698D02*
X13221277Y-7887746D01*
X13221277Y-7887746D02*
X13221277Y-7944888D01*
X13221277Y-7944888D02*
X13211753Y-7963936D01*
X13211753Y-7963936D02*
X13202230Y-7973460D01*
X13202230Y-7973460D02*
X13183182Y-7982984D01*
X13183182Y-7982984D02*
X13154610Y-7982984D01*
X13335563Y-7982984D02*
X13316515Y-7973460D01*
X13316515Y-7973460D02*
X13306991Y-7954412D01*
X13306991Y-7954412D02*
X13306991Y-7782984D01*
X13487944Y-7973460D02*
X13468896Y-7982984D01*
X13468896Y-7982984D02*
X13430801Y-7982984D01*
X13430801Y-7982984D02*
X13411753Y-7973460D01*
X13411753Y-7973460D02*
X13402230Y-7954412D01*
X13402230Y-7954412D02*
X13402230Y-7878222D01*
X13402230Y-7878222D02*
X13411753Y-7859174D01*
X13411753Y-7859174D02*
X13430801Y-7849650D01*
X13430801Y-7849650D02*
X13468896Y-7849650D01*
X13468896Y-7849650D02*
X13487944Y-7859174D01*
X13487944Y-7859174D02*
X13497468Y-7878222D01*
X13497468Y-7878222D02*
X13497468Y-7897269D01*
X13497468Y-7897269D02*
X13402230Y-7916317D01*
X13573658Y-7973460D02*
X13592706Y-7982984D01*
X13592706Y-7982984D02*
X13630801Y-7982984D01*
X13630801Y-7982984D02*
X13649849Y-7973460D01*
X13649849Y-7973460D02*
X13659372Y-7954412D01*
X13659372Y-7954412D02*
X13659372Y-7944888D01*
X13659372Y-7944888D02*
X13649849Y-7925841D01*
X13649849Y-7925841D02*
X13630801Y-7916317D01*
X13630801Y-7916317D02*
X13602230Y-7916317D01*
X13602230Y-7916317D02*
X13583182Y-7906793D01*
X13583182Y-7906793D02*
X13573658Y-7887746D01*
X13573658Y-7887746D02*
X13573658Y-7878222D01*
X13573658Y-7878222D02*
X13583182Y-7859174D01*
X13583182Y-7859174D02*
X13602230Y-7849650D01*
X13602230Y-7849650D02*
X13630801Y-7849650D01*
X13630801Y-7849650D02*
X13649849Y-7859174D01*
X13726039Y-8059174D02*
X13735563Y-8049650D01*
X13735563Y-8049650D02*
X13754611Y-8021079D01*
X13754611Y-8021079D02*
X13764134Y-8002031D01*
X13764134Y-8002031D02*
X13773658Y-7973460D01*
X13773658Y-7973460D02*
X13783182Y-7925841D01*
X13783182Y-7925841D02*
X13783182Y-7887746D01*
X13783182Y-7887746D02*
X13773658Y-7840127D01*
X13773658Y-7840127D02*
X13764134Y-7811555D01*
X13764134Y-7811555D02*
X13754611Y-7792508D01*
X13754611Y-7792508D02*
X13735563Y-7763936D01*
X13735563Y-7763936D02*
X13726039Y-7754412D01*
M02*
