%TF.GenerationSoftware,KiCad,Pcbnew,8.0.8*%
%TF.CreationDate,2025-01-25T22:43:36+07:00*%
%TF.ProjectId,Pton1,50746f6e-312e-46b6-9963-61645f706362,rev?*%
%TF.SameCoordinates,Original*%
%TF.FileFunction,Copper,L1,Top*%
%TF.FilePolarity,Positive*%
%FSLAX46Y46*%
G04 Gerber Fmt 4.6, Leading zero omitted, Abs format (unit mm)*
G04 Created by KiCad (PCBNEW 8.0.8) date 2025-01-25 22:43:36*
%MOMM*%
%LPD*%
G01*
G04 APERTURE LIST*
G04 Aperture macros list*
%AMRoundRect*
0 Rectangle with rounded corners*
0 $1 Rounding radius*
0 $2 $3 $4 $5 $6 $7 $8 $9 X,Y pos of 4 corners*
0 Add a 4 corners polygon primitive as box body*
4,1,4,$2,$3,$4,$5,$6,$7,$8,$9,$2,$3,0*
0 Add four circle primitives for the rounded corners*
1,1,$1+$1,$2,$3*
1,1,$1+$1,$4,$5*
1,1,$1+$1,$6,$7*
1,1,$1+$1,$8,$9*
0 Add four rect primitives between the rounded corners*
20,1,$1+$1,$2,$3,$4,$5,0*
20,1,$1+$1,$4,$5,$6,$7,0*
20,1,$1+$1,$6,$7,$8,$9,0*
20,1,$1+$1,$8,$9,$2,$3,0*%
G04 Aperture macros list end*
%TA.AperFunction,SMDPad,CuDef*%
%ADD10RoundRect,0.250000X0.275000X-0.287500X0.275000X0.287500X-0.275000X0.287500X-0.275000X-0.287500X0*%
%TD*%
%TA.AperFunction,SMDPad,CuDef*%
%ADD11RoundRect,0.135000X-0.135000X-0.185000X0.135000X-0.185000X0.135000X0.185000X-0.135000X0.185000X0*%
%TD*%
%TA.AperFunction,ComponentPad*%
%ADD12R,1.700000X1.700000*%
%TD*%
%TA.AperFunction,ComponentPad*%
%ADD13O,1.700000X1.700000*%
%TD*%
%TA.AperFunction,SMDPad,CuDef*%
%ADD14RoundRect,0.250000X-0.275000X0.287500X-0.275000X-0.287500X0.275000X-0.287500X0.275000X0.287500X0*%
%TD*%
%TA.AperFunction,SMDPad,CuDef*%
%ADD15RoundRect,0.135000X0.135000X0.185000X-0.135000X0.185000X-0.135000X-0.185000X0.135000X-0.185000X0*%
%TD*%
%TA.AperFunction,SMDPad,CuDef*%
%ADD16R,0.900000X1.000000*%
%TD*%
%TA.AperFunction,SMDPad,CuDef*%
%ADD17R,0.250000X1.100000*%
%TD*%
%TA.AperFunction,ViaPad*%
%ADD18C,0.600000*%
%TD*%
%TA.AperFunction,Conductor*%
%ADD19C,0.500000*%
%TD*%
%TA.AperFunction,Conductor*%
%ADD20C,0.200000*%
%TD*%
%TA.AperFunction,Conductor*%
%ADD21C,0.150000*%
%TD*%
%TA.AperFunction,Conductor*%
%ADD22C,0.250000*%
%TD*%
G04 APERTURE END LIST*
D10*
%TO.P,C2,2*%
%TO.N,Net-(J2-Pin_10)*%
X95250000Y-44295000D03*
%TO.P,C2,1*%
%TO.N,Net-(J2-Pin_9)*%
X95250000Y-45720000D03*
%TD*%
D11*
%TO.P,R4,1*%
%TO.N,/ADDR*%
X98040000Y-54610000D03*
%TO.P,R4,2*%
%TO.N,GND*%
X99060000Y-54610000D03*
%TD*%
D12*
%TO.P,J2,1,Pin_1*%
%TO.N,/AIN3*%
X90170000Y-67310000D03*
D13*
%TO.P,J2,2,Pin_2*%
%TO.N,/AIN2*%
X90170000Y-64770000D03*
%TO.P,J2,3,Pin_3*%
%TO.N,/AIN1*%
X90170000Y-62230000D03*
%TO.P,J2,4,Pin_4*%
%TO.N,/AIN0*%
X90170000Y-59690000D03*
%TO.P,J2,5,Pin_5*%
%TO.N,/ALERT*%
X90170000Y-57150000D03*
%TO.P,J2,6,Pin_6*%
%TO.N,/ADDR*%
X90170000Y-54610000D03*
%TO.P,J2,7,Pin_7*%
%TO.N,/SDA*%
X90170000Y-52070000D03*
%TO.P,J2,8,Pin_8*%
%TO.N,/SCI*%
X90170000Y-49530000D03*
%TO.P,J2,9,Pin_9*%
%TO.N,Net-(J2-Pin_9)*%
X90170000Y-46990000D03*
%TO.P,J2,10,Pin_10*%
%TO.N,Net-(J2-Pin_10)*%
X90170000Y-44450000D03*
%TD*%
D14*
%TO.P,C1,1*%
%TO.N,GND*%
X101600000Y-62075000D03*
%TO.P,C1,2*%
%TO.N,VDD*%
X101600000Y-63500000D03*
%TD*%
D15*
%TO.P,R2,1*%
%TO.N,VDD*%
X99060000Y-49530000D03*
%TO.P,R2,2*%
%TO.N,/SCI*%
X98040000Y-49530000D03*
%TD*%
D16*
%TO.P,FB1,1*%
%TO.N,Net-(J2-Pin_10)*%
X97360000Y-44450000D03*
%TO.P,FB1,2*%
%TO.N,VDD*%
X99060000Y-44450000D03*
%TD*%
%TO.P,FB2,1*%
%TO.N,Net-(J2-Pin_9)*%
X97360000Y-46990000D03*
%TO.P,FB2,2*%
%TO.N,GND*%
X99060000Y-46990000D03*
%TD*%
D17*
%TO.P,Ship1,1,ADDR*%
%TO.N,/ADDR*%
X99060000Y-61350000D03*
%TO.P,Ship1,2,ALERT/RDY*%
%TO.N,/ALERT*%
X98560000Y-61350000D03*
%TO.P,Ship1,3,GND*%
%TO.N,GND*%
X98060000Y-61350000D03*
%TO.P,Ship1,4,AIN0*%
%TO.N,/AIN0*%
X97560000Y-61350000D03*
%TO.P,Ship1,5,AIN1*%
%TO.N,/AIN1*%
X97060000Y-61350000D03*
%TO.P,Ship1,6,AIN2*%
%TO.N,/AIN2*%
X97060000Y-65650000D03*
%TO.P,Ship1,7,AIN3*%
%TO.N,/AIN3*%
X97560000Y-65650000D03*
%TO.P,Ship1,8,VDD*%
%TO.N,VDD*%
X98060000Y-65650000D03*
%TO.P,Ship1,9,SDA*%
%TO.N,/SDA*%
X98560000Y-65650000D03*
%TO.P,Ship1,10,SCL*%
%TO.N,/SCI*%
X99060000Y-65650000D03*
%TD*%
D15*
%TO.P,R1,1*%
%TO.N,VDD*%
X99060000Y-57150000D03*
%TO.P,R1,2*%
%TO.N,/ALERT*%
X98040000Y-57150000D03*
%TD*%
%TO.P,R3,1*%
%TO.N,VDD*%
X99060000Y-52070000D03*
%TO.P,R3,2*%
%TO.N,/SDA*%
X98040000Y-52070000D03*
%TD*%
D18*
%TO.N,GND*%
X100330000Y-46990000D03*
X101600000Y-59690000D03*
X97790000Y-59690000D03*
X100330000Y-54610000D03*
%TO.N,/ADDR*%
X96520000Y-54610000D03*
X100330000Y-58420000D03*
%TO.N,/SCI*%
X99060000Y-68580000D03*
%TO.N,/SDA*%
X97790000Y-68580000D03*
%TD*%
D19*
%TO.N,Net-(J2-Pin_10)*%
X95250000Y-44295000D02*
X97360000Y-44450000D01*
X90170000Y-44450000D02*
X95250000Y-44295000D01*
%TO.N,Net-(J2-Pin_9)*%
X96520000Y-46990000D02*
X97360000Y-46990000D01*
X95250000Y-45720000D02*
X96520000Y-46990000D01*
X92865000Y-46990000D02*
X95250000Y-45720000D01*
X90170000Y-46990000D02*
X92865000Y-46990000D01*
%TO.N,VDD*%
X104140000Y-63500000D02*
X101600000Y-63500000D01*
X99060000Y-44450000D02*
X102870000Y-44450000D01*
D20*
X99060000Y-63500000D02*
X101600000Y-63500000D01*
D19*
X104140000Y-57150000D02*
X104140000Y-63500000D01*
X102870000Y-52070000D02*
X102870000Y-57150000D01*
X102870000Y-49530000D02*
X102870000Y-52070000D01*
X102870000Y-44450000D02*
X102870000Y-49530000D01*
X102870000Y-57150000D02*
X99060000Y-57150000D01*
X102870000Y-49530000D02*
X99060000Y-49530000D01*
D20*
X98060000Y-64500000D02*
X99060000Y-63500000D01*
D19*
X102870000Y-52070000D02*
X99060000Y-52070000D01*
D20*
X98060000Y-65650000D02*
X98060000Y-64500000D01*
D19*
X102870000Y-57150000D02*
X104140000Y-57150000D01*
D20*
%TO.N,GND*%
X98060000Y-61350000D02*
X98060000Y-59960000D01*
X101600000Y-62075000D02*
X101600000Y-59690000D01*
D19*
X99060000Y-54610000D02*
X100330000Y-54610000D01*
D20*
X98060000Y-59960000D02*
X97790000Y-59690000D01*
D19*
X99060000Y-46990000D02*
X100330000Y-46990000D01*
D20*
%TO.N,/AIN0*%
X96520000Y-59690000D02*
X90170000Y-59690000D01*
X97560000Y-60730000D02*
X96520000Y-59690000D01*
X97560000Y-61350000D02*
X97560000Y-60730000D01*
%TO.N,/ADDR*%
X99060000Y-59690000D02*
X100330000Y-58420000D01*
D19*
X98040000Y-54610000D02*
X90170000Y-54610000D01*
D20*
X99060000Y-61350000D02*
X99060000Y-59690000D01*
D21*
X99060000Y-61350000D02*
X99060000Y-60960000D01*
D19*
%TO.N,/SCI*%
X98040000Y-49530000D02*
X90170000Y-49530000D01*
D20*
X99060000Y-65650000D02*
X99060000Y-68580000D01*
%TO.N,/AIN1*%
X96180000Y-62230000D02*
X90170000Y-62230000D01*
D22*
X97060000Y-61350000D02*
X97060000Y-61690000D01*
D20*
X97060000Y-61350000D02*
X96180000Y-62230000D01*
%TO.N,/AIN3*%
X96520000Y-67310000D02*
X90170000Y-67310000D01*
X97560000Y-66270000D02*
X96520000Y-67310000D01*
X97560000Y-65650000D02*
X97560000Y-66270000D01*
D19*
%TO.N,/SDA*%
X98040000Y-52070000D02*
X90170000Y-52070000D01*
D20*
X98560000Y-67810000D02*
X97790000Y-68580000D01*
X98560000Y-65650000D02*
X98560000Y-67810000D01*
%TO.N,/AIN2*%
X97060000Y-65650000D02*
X96180000Y-64770000D01*
X96180000Y-64770000D02*
X90170000Y-64770000D01*
D22*
X97060000Y-65650000D02*
X97060000Y-65310000D01*
D20*
%TO.N,/ALERT*%
X98560000Y-61350000D02*
X98560000Y-57670000D01*
D19*
X97790000Y-57150000D02*
X90170000Y-57150000D01*
D20*
X98560000Y-57670000D02*
X98040000Y-57150000D01*
D19*
X98040000Y-57150000D02*
X97790000Y-57150000D01*
D21*
X98560000Y-61350000D02*
X98660000Y-61250000D01*
%TD*%
M02*
