%TF.GenerationSoftware,KiCad,Pcbnew,8.0.8*%
%TF.CreationDate,2025-01-25T22:43:36+07:00*%
%TF.ProjectId,Pton1,50746f6e-312e-46b6-9963-61645f706362,rev?*%
%TF.SameCoordinates,Original*%
%TF.FileFunction,OtherDrawing,Comment*%
%FSLAX46Y46*%
G04 Gerber Fmt 4.6, Leading zero omitted, Abs format (unit mm)*
G04 Created by KiCad (PCBNEW 8.0.8) date 2025-01-25 22:43:36*
%MOMM*%
%LPD*%
G01*
G04 APERTURE LIST*
%ADD10C,0.100000*%
%ADD11C,0.125000*%
%ADD12C,0.075000*%
G04 APERTURE END LIST*
D10*
X91620074Y-67059942D02*
X91905789Y-67059942D01*
X91562931Y-67231371D02*
X91762931Y-66631371D01*
X91762931Y-66631371D02*
X91962931Y-67231371D01*
X92105789Y-66631371D02*
X92477217Y-66631371D01*
X92477217Y-66631371D02*
X92277217Y-66859942D01*
X92277217Y-66859942D02*
X92362932Y-66859942D01*
X92362932Y-66859942D02*
X92420075Y-66888514D01*
X92420075Y-66888514D02*
X92448646Y-66917085D01*
X92448646Y-66917085D02*
X92477217Y-66974228D01*
X92477217Y-66974228D02*
X92477217Y-67117085D01*
X92477217Y-67117085D02*
X92448646Y-67174228D01*
X92448646Y-67174228D02*
X92420075Y-67202800D01*
X92420075Y-67202800D02*
X92362932Y-67231371D01*
X92362932Y-67231371D02*
X92191503Y-67231371D01*
X92191503Y-67231371D02*
X92134360Y-67202800D01*
X92134360Y-67202800D02*
X92105789Y-67174228D01*
X91620074Y-64519942D02*
X91905789Y-64519942D01*
X91562931Y-64691371D02*
X91762931Y-64091371D01*
X91762931Y-64091371D02*
X91962931Y-64691371D01*
X92134360Y-64148514D02*
X92162932Y-64119942D01*
X92162932Y-64119942D02*
X92220075Y-64091371D01*
X92220075Y-64091371D02*
X92362932Y-64091371D01*
X92362932Y-64091371D02*
X92420075Y-64119942D01*
X92420075Y-64119942D02*
X92448646Y-64148514D01*
X92448646Y-64148514D02*
X92477217Y-64205657D01*
X92477217Y-64205657D02*
X92477217Y-64262800D01*
X92477217Y-64262800D02*
X92448646Y-64348514D01*
X92448646Y-64348514D02*
X92105789Y-64691371D01*
X92105789Y-64691371D02*
X92477217Y-64691371D01*
X91620074Y-61979942D02*
X91905789Y-61979942D01*
X91562931Y-62151371D02*
X91762931Y-61551371D01*
X91762931Y-61551371D02*
X91962931Y-62151371D01*
X92477217Y-62151371D02*
X92134360Y-62151371D01*
X92305789Y-62151371D02*
X92305789Y-61551371D01*
X92305789Y-61551371D02*
X92248646Y-61637085D01*
X92248646Y-61637085D02*
X92191503Y-61694228D01*
X92191503Y-61694228D02*
X92134360Y-61722800D01*
X91620074Y-59439942D02*
X91905789Y-59439942D01*
X91562931Y-59611371D02*
X91762931Y-59011371D01*
X91762931Y-59011371D02*
X91962931Y-59611371D01*
X92277217Y-59011371D02*
X92334360Y-59011371D01*
X92334360Y-59011371D02*
X92391503Y-59039942D01*
X92391503Y-59039942D02*
X92420075Y-59068514D01*
X92420075Y-59068514D02*
X92448646Y-59125657D01*
X92448646Y-59125657D02*
X92477217Y-59239942D01*
X92477217Y-59239942D02*
X92477217Y-59382800D01*
X92477217Y-59382800D02*
X92448646Y-59497085D01*
X92448646Y-59497085D02*
X92420075Y-59554228D01*
X92420075Y-59554228D02*
X92391503Y-59582800D01*
X92391503Y-59582800D02*
X92334360Y-59611371D01*
X92334360Y-59611371D02*
X92277217Y-59611371D01*
X92277217Y-59611371D02*
X92220075Y-59582800D01*
X92220075Y-59582800D02*
X92191503Y-59554228D01*
X92191503Y-59554228D02*
X92162932Y-59497085D01*
X92162932Y-59497085D02*
X92134360Y-59382800D01*
X92134360Y-59382800D02*
X92134360Y-59239942D01*
X92134360Y-59239942D02*
X92162932Y-59125657D01*
X92162932Y-59125657D02*
X92191503Y-59068514D01*
X92191503Y-59068514D02*
X92220075Y-59039942D01*
X92220075Y-59039942D02*
X92277217Y-59011371D01*
X91620074Y-56899942D02*
X91905789Y-56899942D01*
X91562931Y-57071371D02*
X91762931Y-56471371D01*
X91762931Y-56471371D02*
X91962931Y-57071371D01*
X92448646Y-57071371D02*
X92162932Y-57071371D01*
X92162932Y-57071371D02*
X92162932Y-56471371D01*
X92991503Y-57071371D02*
X92791503Y-56785657D01*
X92648646Y-57071371D02*
X92648646Y-56471371D01*
X92648646Y-56471371D02*
X92877217Y-56471371D01*
X92877217Y-56471371D02*
X92934360Y-56499942D01*
X92934360Y-56499942D02*
X92962931Y-56528514D01*
X92962931Y-56528514D02*
X92991503Y-56585657D01*
X92991503Y-56585657D02*
X92991503Y-56671371D01*
X92991503Y-56671371D02*
X92962931Y-56728514D01*
X92962931Y-56728514D02*
X92934360Y-56757085D01*
X92934360Y-56757085D02*
X92877217Y-56785657D01*
X92877217Y-56785657D02*
X92648646Y-56785657D01*
X93162931Y-56471371D02*
X93505789Y-56471371D01*
X93334360Y-57071371D02*
X93334360Y-56471371D01*
X91680074Y-54329942D02*
X91965789Y-54329942D01*
X91622931Y-54501371D02*
X91822931Y-53901371D01*
X91822931Y-53901371D02*
X92022931Y-54501371D01*
X92222932Y-54501371D02*
X92222932Y-53901371D01*
X92222932Y-53901371D02*
X92365789Y-53901371D01*
X92365789Y-53901371D02*
X92451503Y-53929942D01*
X92451503Y-53929942D02*
X92508646Y-53987085D01*
X92508646Y-53987085D02*
X92537217Y-54044228D01*
X92537217Y-54044228D02*
X92565789Y-54158514D01*
X92565789Y-54158514D02*
X92565789Y-54244228D01*
X92565789Y-54244228D02*
X92537217Y-54358514D01*
X92537217Y-54358514D02*
X92508646Y-54415657D01*
X92508646Y-54415657D02*
X92451503Y-54472800D01*
X92451503Y-54472800D02*
X92365789Y-54501371D01*
X92365789Y-54501371D02*
X92222932Y-54501371D01*
X92822932Y-54501371D02*
X92822932Y-53901371D01*
X92822932Y-53901371D02*
X92965789Y-53901371D01*
X92965789Y-53901371D02*
X93051503Y-53929942D01*
X93051503Y-53929942D02*
X93108646Y-53987085D01*
X93108646Y-53987085D02*
X93137217Y-54044228D01*
X93137217Y-54044228D02*
X93165789Y-54158514D01*
X93165789Y-54158514D02*
X93165789Y-54244228D01*
X93165789Y-54244228D02*
X93137217Y-54358514D01*
X93137217Y-54358514D02*
X93108646Y-54415657D01*
X93108646Y-54415657D02*
X93051503Y-54472800D01*
X93051503Y-54472800D02*
X92965789Y-54501371D01*
X92965789Y-54501371D02*
X92822932Y-54501371D01*
X93765789Y-54501371D02*
X93565789Y-54215657D01*
X93422932Y-54501371D02*
X93422932Y-53901371D01*
X93422932Y-53901371D02*
X93651503Y-53901371D01*
X93651503Y-53901371D02*
X93708646Y-53929942D01*
X93708646Y-53929942D02*
X93737217Y-53958514D01*
X93737217Y-53958514D02*
X93765789Y-54015657D01*
X93765789Y-54015657D02*
X93765789Y-54101371D01*
X93765789Y-54101371D02*
X93737217Y-54158514D01*
X93737217Y-54158514D02*
X93708646Y-54187085D01*
X93708646Y-54187085D02*
X93651503Y-54215657D01*
X93651503Y-54215657D02*
X93422932Y-54215657D01*
X91620074Y-51962800D02*
X91705789Y-51991371D01*
X91705789Y-51991371D02*
X91848646Y-51991371D01*
X91848646Y-51991371D02*
X91905789Y-51962800D01*
X91905789Y-51962800D02*
X91934360Y-51934228D01*
X91934360Y-51934228D02*
X91962931Y-51877085D01*
X91962931Y-51877085D02*
X91962931Y-51819942D01*
X91962931Y-51819942D02*
X91934360Y-51762800D01*
X91934360Y-51762800D02*
X91905789Y-51734228D01*
X91905789Y-51734228D02*
X91848646Y-51705657D01*
X91848646Y-51705657D02*
X91734360Y-51677085D01*
X91734360Y-51677085D02*
X91677217Y-51648514D01*
X91677217Y-51648514D02*
X91648646Y-51619942D01*
X91648646Y-51619942D02*
X91620074Y-51562800D01*
X91620074Y-51562800D02*
X91620074Y-51505657D01*
X91620074Y-51505657D02*
X91648646Y-51448514D01*
X91648646Y-51448514D02*
X91677217Y-51419942D01*
X91677217Y-51419942D02*
X91734360Y-51391371D01*
X91734360Y-51391371D02*
X91877217Y-51391371D01*
X91877217Y-51391371D02*
X91962931Y-51419942D01*
X92220075Y-51991371D02*
X92220075Y-51391371D01*
X92220075Y-51391371D02*
X92362932Y-51391371D01*
X92362932Y-51391371D02*
X92448646Y-51419942D01*
X92448646Y-51419942D02*
X92505789Y-51477085D01*
X92505789Y-51477085D02*
X92534360Y-51534228D01*
X92534360Y-51534228D02*
X92562932Y-51648514D01*
X92562932Y-51648514D02*
X92562932Y-51734228D01*
X92562932Y-51734228D02*
X92534360Y-51848514D01*
X92534360Y-51848514D02*
X92505789Y-51905657D01*
X92505789Y-51905657D02*
X92448646Y-51962800D01*
X92448646Y-51962800D02*
X92362932Y-51991371D01*
X92362932Y-51991371D02*
X92220075Y-51991371D01*
X92791503Y-51819942D02*
X93077218Y-51819942D01*
X92734360Y-51991371D02*
X92934360Y-51391371D01*
X92934360Y-51391371D02*
X93134360Y-51991371D01*
X91620074Y-49422800D02*
X91705789Y-49451371D01*
X91705789Y-49451371D02*
X91848646Y-49451371D01*
X91848646Y-49451371D02*
X91905789Y-49422800D01*
X91905789Y-49422800D02*
X91934360Y-49394228D01*
X91934360Y-49394228D02*
X91962931Y-49337085D01*
X91962931Y-49337085D02*
X91962931Y-49279942D01*
X91962931Y-49279942D02*
X91934360Y-49222800D01*
X91934360Y-49222800D02*
X91905789Y-49194228D01*
X91905789Y-49194228D02*
X91848646Y-49165657D01*
X91848646Y-49165657D02*
X91734360Y-49137085D01*
X91734360Y-49137085D02*
X91677217Y-49108514D01*
X91677217Y-49108514D02*
X91648646Y-49079942D01*
X91648646Y-49079942D02*
X91620074Y-49022800D01*
X91620074Y-49022800D02*
X91620074Y-48965657D01*
X91620074Y-48965657D02*
X91648646Y-48908514D01*
X91648646Y-48908514D02*
X91677217Y-48879942D01*
X91677217Y-48879942D02*
X91734360Y-48851371D01*
X91734360Y-48851371D02*
X91877217Y-48851371D01*
X91877217Y-48851371D02*
X91962931Y-48879942D01*
X92562932Y-49394228D02*
X92534360Y-49422800D01*
X92534360Y-49422800D02*
X92448646Y-49451371D01*
X92448646Y-49451371D02*
X92391503Y-49451371D01*
X92391503Y-49451371D02*
X92305789Y-49422800D01*
X92305789Y-49422800D02*
X92248646Y-49365657D01*
X92248646Y-49365657D02*
X92220075Y-49308514D01*
X92220075Y-49308514D02*
X92191503Y-49194228D01*
X92191503Y-49194228D02*
X92191503Y-49108514D01*
X92191503Y-49108514D02*
X92220075Y-48994228D01*
X92220075Y-48994228D02*
X92248646Y-48937085D01*
X92248646Y-48937085D02*
X92305789Y-48879942D01*
X92305789Y-48879942D02*
X92391503Y-48851371D01*
X92391503Y-48851371D02*
X92448646Y-48851371D01*
X92448646Y-48851371D02*
X92534360Y-48879942D01*
X92534360Y-48879942D02*
X92562932Y-48908514D01*
X93105789Y-49451371D02*
X92820075Y-49451371D01*
X92820075Y-49451371D02*
X92820075Y-48851371D01*
X91962931Y-46339942D02*
X91905789Y-46311371D01*
X91905789Y-46311371D02*
X91820074Y-46311371D01*
X91820074Y-46311371D02*
X91734360Y-46339942D01*
X91734360Y-46339942D02*
X91677217Y-46397085D01*
X91677217Y-46397085D02*
X91648646Y-46454228D01*
X91648646Y-46454228D02*
X91620074Y-46568514D01*
X91620074Y-46568514D02*
X91620074Y-46654228D01*
X91620074Y-46654228D02*
X91648646Y-46768514D01*
X91648646Y-46768514D02*
X91677217Y-46825657D01*
X91677217Y-46825657D02*
X91734360Y-46882800D01*
X91734360Y-46882800D02*
X91820074Y-46911371D01*
X91820074Y-46911371D02*
X91877217Y-46911371D01*
X91877217Y-46911371D02*
X91962931Y-46882800D01*
X91962931Y-46882800D02*
X91991503Y-46854228D01*
X91991503Y-46854228D02*
X91991503Y-46654228D01*
X91991503Y-46654228D02*
X91877217Y-46654228D01*
X92248646Y-46911371D02*
X92248646Y-46311371D01*
X92248646Y-46311371D02*
X92591503Y-46911371D01*
X92591503Y-46911371D02*
X92591503Y-46311371D01*
X92877217Y-46911371D02*
X92877217Y-46311371D01*
X92877217Y-46311371D02*
X93020074Y-46311371D01*
X93020074Y-46311371D02*
X93105788Y-46339942D01*
X93105788Y-46339942D02*
X93162931Y-46397085D01*
X93162931Y-46397085D02*
X93191502Y-46454228D01*
X93191502Y-46454228D02*
X93220074Y-46568514D01*
X93220074Y-46568514D02*
X93220074Y-46654228D01*
X93220074Y-46654228D02*
X93191502Y-46768514D01*
X93191502Y-46768514D02*
X93162931Y-46825657D01*
X93162931Y-46825657D02*
X93105788Y-46882800D01*
X93105788Y-46882800D02*
X93020074Y-46911371D01*
X93020074Y-46911371D02*
X92877217Y-46911371D01*
X91562931Y-43771371D02*
X91762931Y-44371371D01*
X91762931Y-44371371D02*
X91962931Y-43771371D01*
X92162932Y-44371371D02*
X92162932Y-43771371D01*
X92162932Y-43771371D02*
X92305789Y-43771371D01*
X92305789Y-43771371D02*
X92391503Y-43799942D01*
X92391503Y-43799942D02*
X92448646Y-43857085D01*
X92448646Y-43857085D02*
X92477217Y-43914228D01*
X92477217Y-43914228D02*
X92505789Y-44028514D01*
X92505789Y-44028514D02*
X92505789Y-44114228D01*
X92505789Y-44114228D02*
X92477217Y-44228514D01*
X92477217Y-44228514D02*
X92448646Y-44285657D01*
X92448646Y-44285657D02*
X92391503Y-44342800D01*
X92391503Y-44342800D02*
X92305789Y-44371371D01*
X92305789Y-44371371D02*
X92162932Y-44371371D01*
X92762932Y-44371371D02*
X92762932Y-43771371D01*
X92762932Y-43771371D02*
X92905789Y-43771371D01*
X92905789Y-43771371D02*
X92991503Y-43799942D01*
X92991503Y-43799942D02*
X93048646Y-43857085D01*
X93048646Y-43857085D02*
X93077217Y-43914228D01*
X93077217Y-43914228D02*
X93105789Y-44028514D01*
X93105789Y-44028514D02*
X93105789Y-44114228D01*
X93105789Y-44114228D02*
X93077217Y-44228514D01*
X93077217Y-44228514D02*
X93048646Y-44285657D01*
X93048646Y-44285657D02*
X92991503Y-44342800D01*
X92991503Y-44342800D02*
X92905789Y-44371371D01*
X92905789Y-44371371D02*
X92762932Y-44371371D01*
D11*
X105012662Y-43643188D02*
X105012662Y-43357474D01*
X105012662Y-43500331D02*
X105512662Y-43500331D01*
X105512662Y-43500331D02*
X105441233Y-43452712D01*
X105441233Y-43452712D02*
X105393614Y-43405093D01*
X105393614Y-43405093D02*
X105369805Y-43357474D01*
X105512662Y-44071759D02*
X105512662Y-43976521D01*
X105512662Y-43976521D02*
X105488852Y-43928902D01*
X105488852Y-43928902D02*
X105465043Y-43905092D01*
X105465043Y-43905092D02*
X105393614Y-43857473D01*
X105393614Y-43857473D02*
X105298376Y-43833664D01*
X105298376Y-43833664D02*
X105107900Y-43833664D01*
X105107900Y-43833664D02*
X105060281Y-43857473D01*
X105060281Y-43857473D02*
X105036472Y-43881283D01*
X105036472Y-43881283D02*
X105012662Y-43928902D01*
X105012662Y-43928902D02*
X105012662Y-44024140D01*
X105012662Y-44024140D02*
X105036472Y-44071759D01*
X105036472Y-44071759D02*
X105060281Y-44095568D01*
X105060281Y-44095568D02*
X105107900Y-44119378D01*
X105107900Y-44119378D02*
X105226948Y-44119378D01*
X105226948Y-44119378D02*
X105274567Y-44095568D01*
X105274567Y-44095568D02*
X105298376Y-44071759D01*
X105298376Y-44071759D02*
X105322186Y-44024140D01*
X105322186Y-44024140D02*
X105322186Y-43928902D01*
X105322186Y-43928902D02*
X105298376Y-43881283D01*
X105298376Y-43881283D02*
X105274567Y-43857473D01*
X105274567Y-43857473D02*
X105226948Y-43833664D01*
X105274567Y-44500330D02*
X105250757Y-44571758D01*
X105250757Y-44571758D02*
X105226948Y-44595568D01*
X105226948Y-44595568D02*
X105179329Y-44619377D01*
X105179329Y-44619377D02*
X105107900Y-44619377D01*
X105107900Y-44619377D02*
X105060281Y-44595568D01*
X105060281Y-44595568D02*
X105036472Y-44571758D01*
X105036472Y-44571758D02*
X105012662Y-44524139D01*
X105012662Y-44524139D02*
X105012662Y-44333663D01*
X105012662Y-44333663D02*
X105512662Y-44333663D01*
X105512662Y-44333663D02*
X105512662Y-44500330D01*
X105512662Y-44500330D02*
X105488852Y-44547949D01*
X105488852Y-44547949D02*
X105465043Y-44571758D01*
X105465043Y-44571758D02*
X105417424Y-44595568D01*
X105417424Y-44595568D02*
X105369805Y-44595568D01*
X105369805Y-44595568D02*
X105322186Y-44571758D01*
X105322186Y-44571758D02*
X105298376Y-44547949D01*
X105298376Y-44547949D02*
X105274567Y-44500330D01*
X105274567Y-44500330D02*
X105274567Y-44333663D01*
X105012662Y-44833663D02*
X105345995Y-44833663D01*
X105512662Y-44833663D02*
X105488852Y-44809854D01*
X105488852Y-44809854D02*
X105465043Y-44833663D01*
X105465043Y-44833663D02*
X105488852Y-44857473D01*
X105488852Y-44857473D02*
X105512662Y-44833663D01*
X105512662Y-44833663D02*
X105465043Y-44833663D01*
X105345995Y-45000330D02*
X105345995Y-45190806D01*
X105512662Y-45071758D02*
X105084091Y-45071758D01*
X105084091Y-45071758D02*
X105036472Y-45095568D01*
X105036472Y-45095568D02*
X105012662Y-45143187D01*
X105012662Y-45143187D02*
X105012662Y-45190806D01*
X105012662Y-45738424D02*
X105512662Y-45738424D01*
X105465043Y-45952710D02*
X105488852Y-45976519D01*
X105488852Y-45976519D02*
X105512662Y-46024138D01*
X105512662Y-46024138D02*
X105512662Y-46143186D01*
X105512662Y-46143186D02*
X105488852Y-46190805D01*
X105488852Y-46190805D02*
X105465043Y-46214614D01*
X105465043Y-46214614D02*
X105417424Y-46238424D01*
X105417424Y-46238424D02*
X105369805Y-46238424D01*
X105369805Y-46238424D02*
X105298376Y-46214614D01*
X105298376Y-46214614D02*
X105012662Y-45928900D01*
X105012662Y-45928900D02*
X105012662Y-46238424D01*
X105060281Y-46738423D02*
X105036472Y-46714614D01*
X105036472Y-46714614D02*
X105012662Y-46643185D01*
X105012662Y-46643185D02*
X105012662Y-46595566D01*
X105012662Y-46595566D02*
X105036472Y-46524138D01*
X105036472Y-46524138D02*
X105084091Y-46476519D01*
X105084091Y-46476519D02*
X105131710Y-46452709D01*
X105131710Y-46452709D02*
X105226948Y-46428900D01*
X105226948Y-46428900D02*
X105298376Y-46428900D01*
X105298376Y-46428900D02*
X105393614Y-46452709D01*
X105393614Y-46452709D02*
X105441233Y-46476519D01*
X105441233Y-46476519D02*
X105488852Y-46524138D01*
X105488852Y-46524138D02*
X105512662Y-46595566D01*
X105512662Y-46595566D02*
X105512662Y-46643185D01*
X105512662Y-46643185D02*
X105488852Y-46714614D01*
X105488852Y-46714614D02*
X105465043Y-46738423D01*
X105155519Y-47309852D02*
X105155519Y-47547947D01*
X105012662Y-47262233D02*
X105512662Y-47428899D01*
X105512662Y-47428899D02*
X105012662Y-47595566D01*
X105012662Y-47762232D02*
X105512662Y-47762232D01*
X105512662Y-47762232D02*
X105512662Y-47881280D01*
X105512662Y-47881280D02*
X105488852Y-47952708D01*
X105488852Y-47952708D02*
X105441233Y-48000327D01*
X105441233Y-48000327D02*
X105393614Y-48024137D01*
X105393614Y-48024137D02*
X105298376Y-48047946D01*
X105298376Y-48047946D02*
X105226948Y-48047946D01*
X105226948Y-48047946D02*
X105131710Y-48024137D01*
X105131710Y-48024137D02*
X105084091Y-48000327D01*
X105084091Y-48000327D02*
X105036472Y-47952708D01*
X105036472Y-47952708D02*
X105012662Y-47881280D01*
X105012662Y-47881280D02*
X105012662Y-47762232D01*
X105060281Y-48547946D02*
X105036472Y-48524137D01*
X105036472Y-48524137D02*
X105012662Y-48452708D01*
X105012662Y-48452708D02*
X105012662Y-48405089D01*
X105012662Y-48405089D02*
X105036472Y-48333661D01*
X105036472Y-48333661D02*
X105084091Y-48286042D01*
X105084091Y-48286042D02*
X105131710Y-48262232D01*
X105131710Y-48262232D02*
X105226948Y-48238423D01*
X105226948Y-48238423D02*
X105298376Y-48238423D01*
X105298376Y-48238423D02*
X105393614Y-48262232D01*
X105393614Y-48262232D02*
X105441233Y-48286042D01*
X105441233Y-48286042D02*
X105488852Y-48333661D01*
X105488852Y-48333661D02*
X105512662Y-48405089D01*
X105512662Y-48405089D02*
X105512662Y-48452708D01*
X105512662Y-48452708D02*
X105488852Y-48524137D01*
X105488852Y-48524137D02*
X105465043Y-48547946D01*
X105203138Y-48762232D02*
X105203138Y-49143185D01*
X105012662Y-48952708D02*
X105393614Y-48952708D01*
X105012662Y-49381280D02*
X105512662Y-49381280D01*
X105512662Y-49381280D02*
X105512662Y-49571756D01*
X105512662Y-49571756D02*
X105488852Y-49619375D01*
X105488852Y-49619375D02*
X105465043Y-49643185D01*
X105465043Y-49643185D02*
X105417424Y-49666994D01*
X105417424Y-49666994D02*
X105345995Y-49666994D01*
X105345995Y-49666994D02*
X105298376Y-49643185D01*
X105298376Y-49643185D02*
X105274567Y-49619375D01*
X105274567Y-49619375D02*
X105250757Y-49571756D01*
X105250757Y-49571756D02*
X105250757Y-49381280D01*
X105488852Y-50143185D02*
X105512662Y-50095566D01*
X105512662Y-50095566D02*
X105512662Y-50024137D01*
X105512662Y-50024137D02*
X105488852Y-49952709D01*
X105488852Y-49952709D02*
X105441233Y-49905090D01*
X105441233Y-49905090D02*
X105393614Y-49881280D01*
X105393614Y-49881280D02*
X105298376Y-49857471D01*
X105298376Y-49857471D02*
X105226948Y-49857471D01*
X105226948Y-49857471D02*
X105131710Y-49881280D01*
X105131710Y-49881280D02*
X105084091Y-49905090D01*
X105084091Y-49905090D02*
X105036472Y-49952709D01*
X105036472Y-49952709D02*
X105012662Y-50024137D01*
X105012662Y-50024137D02*
X105012662Y-50071756D01*
X105012662Y-50071756D02*
X105036472Y-50143185D01*
X105036472Y-50143185D02*
X105060281Y-50166994D01*
X105060281Y-50166994D02*
X105226948Y-50166994D01*
X105226948Y-50166994D02*
X105226948Y-50071756D01*
X105155519Y-50357471D02*
X105155519Y-50595566D01*
X105012662Y-50309852D02*
X105512662Y-50476518D01*
X105512662Y-50476518D02*
X105012662Y-50643185D01*
X104350547Y-45238426D02*
X104350547Y-45476521D01*
X104207690Y-45190807D02*
X104707690Y-45357473D01*
X104707690Y-45357473D02*
X104207690Y-45524140D01*
X104207690Y-45690806D02*
X104707690Y-45690806D01*
X104707690Y-45690806D02*
X104707690Y-45809854D01*
X104707690Y-45809854D02*
X104683880Y-45881282D01*
X104683880Y-45881282D02*
X104636261Y-45928901D01*
X104636261Y-45928901D02*
X104588642Y-45952711D01*
X104588642Y-45952711D02*
X104493404Y-45976520D01*
X104493404Y-45976520D02*
X104421976Y-45976520D01*
X104421976Y-45976520D02*
X104326738Y-45952711D01*
X104326738Y-45952711D02*
X104279119Y-45928901D01*
X104279119Y-45928901D02*
X104231500Y-45881282D01*
X104231500Y-45881282D02*
X104207690Y-45809854D01*
X104207690Y-45809854D02*
X104207690Y-45690806D01*
X104231500Y-46166997D02*
X104207690Y-46238425D01*
X104207690Y-46238425D02*
X104207690Y-46357473D01*
X104207690Y-46357473D02*
X104231500Y-46405092D01*
X104231500Y-46405092D02*
X104255309Y-46428901D01*
X104255309Y-46428901D02*
X104302928Y-46452711D01*
X104302928Y-46452711D02*
X104350547Y-46452711D01*
X104350547Y-46452711D02*
X104398166Y-46428901D01*
X104398166Y-46428901D02*
X104421976Y-46405092D01*
X104421976Y-46405092D02*
X104445785Y-46357473D01*
X104445785Y-46357473D02*
X104469595Y-46262235D01*
X104469595Y-46262235D02*
X104493404Y-46214616D01*
X104493404Y-46214616D02*
X104517214Y-46190806D01*
X104517214Y-46190806D02*
X104564833Y-46166997D01*
X104564833Y-46166997D02*
X104612452Y-46166997D01*
X104612452Y-46166997D02*
X104660071Y-46190806D01*
X104660071Y-46190806D02*
X104683880Y-46214616D01*
X104683880Y-46214616D02*
X104707690Y-46262235D01*
X104707690Y-46262235D02*
X104707690Y-46381282D01*
X104707690Y-46381282D02*
X104683880Y-46452711D01*
X104207690Y-46928901D02*
X104207690Y-46643187D01*
X104207690Y-46786044D02*
X104707690Y-46786044D01*
X104707690Y-46786044D02*
X104636261Y-46738425D01*
X104636261Y-46738425D02*
X104588642Y-46690806D01*
X104588642Y-46690806D02*
X104564833Y-46643187D01*
X104207690Y-47405091D02*
X104207690Y-47119377D01*
X104207690Y-47262234D02*
X104707690Y-47262234D01*
X104707690Y-47262234D02*
X104636261Y-47214615D01*
X104636261Y-47214615D02*
X104588642Y-47166996D01*
X104588642Y-47166996D02*
X104564833Y-47119377D01*
X104207690Y-47881281D02*
X104207690Y-47595567D01*
X104207690Y-47738424D02*
X104707690Y-47738424D01*
X104707690Y-47738424D02*
X104636261Y-47690805D01*
X104636261Y-47690805D02*
X104588642Y-47643186D01*
X104588642Y-47643186D02*
X104564833Y-47595567D01*
X104707690Y-48333661D02*
X104707690Y-48095566D01*
X104707690Y-48095566D02*
X104469595Y-48071757D01*
X104469595Y-48071757D02*
X104493404Y-48095566D01*
X104493404Y-48095566D02*
X104517214Y-48143185D01*
X104517214Y-48143185D02*
X104517214Y-48262233D01*
X104517214Y-48262233D02*
X104493404Y-48309852D01*
X104493404Y-48309852D02*
X104469595Y-48333661D01*
X104469595Y-48333661D02*
X104421976Y-48357471D01*
X104421976Y-48357471D02*
X104302928Y-48357471D01*
X104302928Y-48357471D02*
X104255309Y-48333661D01*
X104255309Y-48333661D02*
X104231500Y-48309852D01*
X104231500Y-48309852D02*
X104207690Y-48262233D01*
X104207690Y-48262233D02*
X104207690Y-48143185D01*
X104207690Y-48143185D02*
X104231500Y-48095566D01*
X104231500Y-48095566D02*
X104255309Y-48071757D01*
D10*
X95465228Y-46934999D02*
X95493800Y-46963571D01*
X95493800Y-46963571D02*
X95522371Y-47049285D01*
X95522371Y-47049285D02*
X95522371Y-47106428D01*
X95522371Y-47106428D02*
X95493800Y-47192142D01*
X95493800Y-47192142D02*
X95436657Y-47249285D01*
X95436657Y-47249285D02*
X95379514Y-47277856D01*
X95379514Y-47277856D02*
X95265228Y-47306428D01*
X95265228Y-47306428D02*
X95179514Y-47306428D01*
X95179514Y-47306428D02*
X95065228Y-47277856D01*
X95065228Y-47277856D02*
X95008085Y-47249285D01*
X95008085Y-47249285D02*
X94950942Y-47192142D01*
X94950942Y-47192142D02*
X94922371Y-47106428D01*
X94922371Y-47106428D02*
X94922371Y-47049285D01*
X94922371Y-47049285D02*
X94950942Y-46963571D01*
X94950942Y-46963571D02*
X94979514Y-46934999D01*
X94979514Y-46706428D02*
X94950942Y-46677856D01*
X94950942Y-46677856D02*
X94922371Y-46620714D01*
X94922371Y-46620714D02*
X94922371Y-46477856D01*
X94922371Y-46477856D02*
X94950942Y-46420714D01*
X94950942Y-46420714D02*
X94979514Y-46392142D01*
X94979514Y-46392142D02*
X95036657Y-46363571D01*
X95036657Y-46363571D02*
X95093800Y-46363571D01*
X95093800Y-46363571D02*
X95179514Y-46392142D01*
X95179514Y-46392142D02*
X95522371Y-46734999D01*
X95522371Y-46734999D02*
X95522371Y-46363571D01*
X95522371Y-43125000D02*
X95522371Y-43467857D01*
X95522371Y-43296428D02*
X94922371Y-43296428D01*
X94922371Y-43296428D02*
X95008085Y-43353571D01*
X95008085Y-43353571D02*
X95065228Y-43410714D01*
X95065228Y-43410714D02*
X95093800Y-43467857D01*
X95122371Y-42610714D02*
X95522371Y-42610714D01*
X95122371Y-42867856D02*
X95436657Y-42867856D01*
X95436657Y-42867856D02*
X95493800Y-42839285D01*
X95493800Y-42839285D02*
X95522371Y-42782142D01*
X95522371Y-42782142D02*
X95522371Y-42696428D01*
X95522371Y-42696428D02*
X95493800Y-42639285D01*
X95493800Y-42639285D02*
X95465228Y-42610714D01*
X96420000Y-54882371D02*
X96220000Y-54596657D01*
X96077143Y-54882371D02*
X96077143Y-54282371D01*
X96077143Y-54282371D02*
X96305714Y-54282371D01*
X96305714Y-54282371D02*
X96362857Y-54310942D01*
X96362857Y-54310942D02*
X96391428Y-54339514D01*
X96391428Y-54339514D02*
X96420000Y-54396657D01*
X96420000Y-54396657D02*
X96420000Y-54482371D01*
X96420000Y-54482371D02*
X96391428Y-54539514D01*
X96391428Y-54539514D02*
X96362857Y-54568085D01*
X96362857Y-54568085D02*
X96305714Y-54596657D01*
X96305714Y-54596657D02*
X96077143Y-54596657D01*
X96934286Y-54482371D02*
X96934286Y-54882371D01*
X96791428Y-54253800D02*
X96648571Y-54682371D01*
X96648571Y-54682371D02*
X97020000Y-54682371D01*
X101815228Y-64869999D02*
X101843800Y-64898571D01*
X101843800Y-64898571D02*
X101872371Y-64984285D01*
X101872371Y-64984285D02*
X101872371Y-65041428D01*
X101872371Y-65041428D02*
X101843800Y-65127142D01*
X101843800Y-65127142D02*
X101786657Y-65184285D01*
X101786657Y-65184285D02*
X101729514Y-65212856D01*
X101729514Y-65212856D02*
X101615228Y-65241428D01*
X101615228Y-65241428D02*
X101529514Y-65241428D01*
X101529514Y-65241428D02*
X101415228Y-65212856D01*
X101415228Y-65212856D02*
X101358085Y-65184285D01*
X101358085Y-65184285D02*
X101300942Y-65127142D01*
X101300942Y-65127142D02*
X101272371Y-65041428D01*
X101272371Y-65041428D02*
X101272371Y-64984285D01*
X101272371Y-64984285D02*
X101300942Y-64898571D01*
X101300942Y-64898571D02*
X101329514Y-64869999D01*
X101872371Y-64298571D02*
X101872371Y-64641428D01*
X101872371Y-64469999D02*
X101272371Y-64469999D01*
X101272371Y-64469999D02*
X101358085Y-64527142D01*
X101358085Y-64527142D02*
X101415228Y-64584285D01*
X101415228Y-64584285D02*
X101443800Y-64641428D01*
X101872371Y-61060000D02*
X101872371Y-61402857D01*
X101872371Y-61231428D02*
X101272371Y-61231428D01*
X101272371Y-61231428D02*
X101358085Y-61288571D01*
X101358085Y-61288571D02*
X101415228Y-61345714D01*
X101415228Y-61345714D02*
X101443800Y-61402857D01*
X101472371Y-60545714D02*
X101872371Y-60545714D01*
X101472371Y-60802856D02*
X101786657Y-60802856D01*
X101786657Y-60802856D02*
X101843800Y-60774285D01*
X101843800Y-60774285D02*
X101872371Y-60717142D01*
X101872371Y-60717142D02*
X101872371Y-60631428D01*
X101872371Y-60631428D02*
X101843800Y-60574285D01*
X101843800Y-60574285D02*
X101815228Y-60545714D01*
X96420000Y-49802371D02*
X96220000Y-49516657D01*
X96077143Y-49802371D02*
X96077143Y-49202371D01*
X96077143Y-49202371D02*
X96305714Y-49202371D01*
X96305714Y-49202371D02*
X96362857Y-49230942D01*
X96362857Y-49230942D02*
X96391428Y-49259514D01*
X96391428Y-49259514D02*
X96420000Y-49316657D01*
X96420000Y-49316657D02*
X96420000Y-49402371D01*
X96420000Y-49402371D02*
X96391428Y-49459514D01*
X96391428Y-49459514D02*
X96362857Y-49488085D01*
X96362857Y-49488085D02*
X96305714Y-49516657D01*
X96305714Y-49516657D02*
X96077143Y-49516657D01*
X96648571Y-49259514D02*
X96677143Y-49230942D01*
X96677143Y-49230942D02*
X96734286Y-49202371D01*
X96734286Y-49202371D02*
X96877143Y-49202371D01*
X96877143Y-49202371D02*
X96934286Y-49230942D01*
X96934286Y-49230942D02*
X96962857Y-49259514D01*
X96962857Y-49259514D02*
X96991428Y-49316657D01*
X96991428Y-49316657D02*
X96991428Y-49373800D01*
X96991428Y-49373800D02*
X96962857Y-49459514D01*
X96962857Y-49459514D02*
X96620000Y-49802371D01*
X96620000Y-49802371D02*
X96991428Y-49802371D01*
X99830000Y-43138085D02*
X99630000Y-43138085D01*
X99630000Y-43452371D02*
X99630000Y-42852371D01*
X99630000Y-42852371D02*
X99915714Y-42852371D01*
X100344286Y-43138085D02*
X100430000Y-43166657D01*
X100430000Y-43166657D02*
X100458571Y-43195228D01*
X100458571Y-43195228D02*
X100487143Y-43252371D01*
X100487143Y-43252371D02*
X100487143Y-43338085D01*
X100487143Y-43338085D02*
X100458571Y-43395228D01*
X100458571Y-43395228D02*
X100430000Y-43423800D01*
X100430000Y-43423800D02*
X100372857Y-43452371D01*
X100372857Y-43452371D02*
X100144286Y-43452371D01*
X100144286Y-43452371D02*
X100144286Y-42852371D01*
X100144286Y-42852371D02*
X100344286Y-42852371D01*
X100344286Y-42852371D02*
X100401429Y-42880942D01*
X100401429Y-42880942D02*
X100430000Y-42909514D01*
X100430000Y-42909514D02*
X100458571Y-42966657D01*
X100458571Y-42966657D02*
X100458571Y-43023800D01*
X100458571Y-43023800D02*
X100430000Y-43080942D01*
X100430000Y-43080942D02*
X100401429Y-43109514D01*
X100401429Y-43109514D02*
X100344286Y-43138085D01*
X100344286Y-43138085D02*
X100144286Y-43138085D01*
X101058571Y-43452371D02*
X100715714Y-43452371D01*
X100887143Y-43452371D02*
X100887143Y-42852371D01*
X100887143Y-42852371D02*
X100830000Y-42938085D01*
X100830000Y-42938085D02*
X100772857Y-42995228D01*
X100772857Y-42995228D02*
X100715714Y-43023800D01*
X99830000Y-45678085D02*
X99630000Y-45678085D01*
X99630000Y-45992371D02*
X99630000Y-45392371D01*
X99630000Y-45392371D02*
X99915714Y-45392371D01*
X100344286Y-45678085D02*
X100430000Y-45706657D01*
X100430000Y-45706657D02*
X100458571Y-45735228D01*
X100458571Y-45735228D02*
X100487143Y-45792371D01*
X100487143Y-45792371D02*
X100487143Y-45878085D01*
X100487143Y-45878085D02*
X100458571Y-45935228D01*
X100458571Y-45935228D02*
X100430000Y-45963800D01*
X100430000Y-45963800D02*
X100372857Y-45992371D01*
X100372857Y-45992371D02*
X100144286Y-45992371D01*
X100144286Y-45992371D02*
X100144286Y-45392371D01*
X100144286Y-45392371D02*
X100344286Y-45392371D01*
X100344286Y-45392371D02*
X100401429Y-45420942D01*
X100401429Y-45420942D02*
X100430000Y-45449514D01*
X100430000Y-45449514D02*
X100458571Y-45506657D01*
X100458571Y-45506657D02*
X100458571Y-45563800D01*
X100458571Y-45563800D02*
X100430000Y-45620942D01*
X100430000Y-45620942D02*
X100401429Y-45649514D01*
X100401429Y-45649514D02*
X100344286Y-45678085D01*
X100344286Y-45678085D02*
X100144286Y-45678085D01*
X100715714Y-45449514D02*
X100744286Y-45420942D01*
X100744286Y-45420942D02*
X100801429Y-45392371D01*
X100801429Y-45392371D02*
X100944286Y-45392371D01*
X100944286Y-45392371D02*
X101001429Y-45420942D01*
X101001429Y-45420942D02*
X101030000Y-45449514D01*
X101030000Y-45449514D02*
X101058571Y-45506657D01*
X101058571Y-45506657D02*
X101058571Y-45563800D01*
X101058571Y-45563800D02*
X101030000Y-45649514D01*
X101030000Y-45649514D02*
X100687143Y-45992371D01*
X100687143Y-45992371D02*
X101058571Y-45992371D01*
D12*
X95299171Y-64949999D02*
X95299171Y-64807142D01*
X95384885Y-64978570D02*
X95084885Y-64878570D01*
X95084885Y-64878570D02*
X95384885Y-64778570D01*
X95384885Y-64678570D02*
X95084885Y-64678570D01*
X95084885Y-64678570D02*
X95084885Y-64607141D01*
X95084885Y-64607141D02*
X95099171Y-64564284D01*
X95099171Y-64564284D02*
X95127742Y-64535713D01*
X95127742Y-64535713D02*
X95156314Y-64521427D01*
X95156314Y-64521427D02*
X95213457Y-64507141D01*
X95213457Y-64507141D02*
X95256314Y-64507141D01*
X95256314Y-64507141D02*
X95313457Y-64521427D01*
X95313457Y-64521427D02*
X95342028Y-64535713D01*
X95342028Y-64535713D02*
X95370600Y-64564284D01*
X95370600Y-64564284D02*
X95384885Y-64607141D01*
X95384885Y-64607141D02*
X95384885Y-64678570D01*
X95370600Y-64392856D02*
X95384885Y-64349999D01*
X95384885Y-64349999D02*
X95384885Y-64278570D01*
X95384885Y-64278570D02*
X95370600Y-64249999D01*
X95370600Y-64249999D02*
X95356314Y-64235713D01*
X95356314Y-64235713D02*
X95327742Y-64221427D01*
X95327742Y-64221427D02*
X95299171Y-64221427D01*
X95299171Y-64221427D02*
X95270600Y-64235713D01*
X95270600Y-64235713D02*
X95256314Y-64249999D01*
X95256314Y-64249999D02*
X95242028Y-64278570D01*
X95242028Y-64278570D02*
X95227742Y-64335713D01*
X95227742Y-64335713D02*
X95213457Y-64364284D01*
X95213457Y-64364284D02*
X95199171Y-64378570D01*
X95199171Y-64378570D02*
X95170600Y-64392856D01*
X95170600Y-64392856D02*
X95142028Y-64392856D01*
X95142028Y-64392856D02*
X95113457Y-64378570D01*
X95113457Y-64378570D02*
X95099171Y-64364284D01*
X95099171Y-64364284D02*
X95084885Y-64335713D01*
X95084885Y-64335713D02*
X95084885Y-64264284D01*
X95084885Y-64264284D02*
X95099171Y-64221427D01*
X95384885Y-63935713D02*
X95384885Y-64107142D01*
X95384885Y-64021427D02*
X95084885Y-64021427D01*
X95084885Y-64021427D02*
X95127742Y-64049999D01*
X95127742Y-64049999D02*
X95156314Y-64078570D01*
X95156314Y-64078570D02*
X95170600Y-64107142D01*
X95084885Y-63749999D02*
X95084885Y-63721428D01*
X95084885Y-63721428D02*
X95099171Y-63692856D01*
X95099171Y-63692856D02*
X95113457Y-63678571D01*
X95113457Y-63678571D02*
X95142028Y-63664285D01*
X95142028Y-63664285D02*
X95199171Y-63649999D01*
X95199171Y-63649999D02*
X95270600Y-63649999D01*
X95270600Y-63649999D02*
X95327742Y-63664285D01*
X95327742Y-63664285D02*
X95356314Y-63678571D01*
X95356314Y-63678571D02*
X95370600Y-63692856D01*
X95370600Y-63692856D02*
X95384885Y-63721428D01*
X95384885Y-63721428D02*
X95384885Y-63749999D01*
X95384885Y-63749999D02*
X95370600Y-63778571D01*
X95370600Y-63778571D02*
X95356314Y-63792856D01*
X95356314Y-63792856D02*
X95327742Y-63807142D01*
X95327742Y-63807142D02*
X95270600Y-63821428D01*
X95270600Y-63821428D02*
X95199171Y-63821428D01*
X95199171Y-63821428D02*
X95142028Y-63807142D01*
X95142028Y-63807142D02*
X95113457Y-63792856D01*
X95113457Y-63792856D02*
X95099171Y-63778571D01*
X95099171Y-63778571D02*
X95084885Y-63749999D01*
X95384885Y-63364285D02*
X95384885Y-63535714D01*
X95384885Y-63449999D02*
X95084885Y-63449999D01*
X95084885Y-63449999D02*
X95127742Y-63478571D01*
X95127742Y-63478571D02*
X95156314Y-63507142D01*
X95156314Y-63507142D02*
X95170600Y-63535714D01*
X95084885Y-63092857D02*
X95084885Y-63235714D01*
X95084885Y-63235714D02*
X95227742Y-63250000D01*
X95227742Y-63250000D02*
X95213457Y-63235714D01*
X95213457Y-63235714D02*
X95199171Y-63207143D01*
X95199171Y-63207143D02*
X95199171Y-63135714D01*
X95199171Y-63135714D02*
X95213457Y-63107143D01*
X95213457Y-63107143D02*
X95227742Y-63092857D01*
X95227742Y-63092857D02*
X95256314Y-63078571D01*
X95256314Y-63078571D02*
X95327742Y-63078571D01*
X95327742Y-63078571D02*
X95356314Y-63092857D01*
X95356314Y-63092857D02*
X95370600Y-63107143D01*
X95370600Y-63107143D02*
X95384885Y-63135714D01*
X95384885Y-63135714D02*
X95384885Y-63207143D01*
X95384885Y-63207143D02*
X95370600Y-63235714D01*
X95370600Y-63235714D02*
X95356314Y-63250000D01*
X95384885Y-62950000D02*
X95084885Y-62950000D01*
X95384885Y-62807143D02*
X95084885Y-62807143D01*
X95084885Y-62807143D02*
X95084885Y-62735714D01*
X95084885Y-62735714D02*
X95099171Y-62692857D01*
X95099171Y-62692857D02*
X95127742Y-62664286D01*
X95127742Y-62664286D02*
X95156314Y-62650000D01*
X95156314Y-62650000D02*
X95213457Y-62635714D01*
X95213457Y-62635714D02*
X95256314Y-62635714D01*
X95256314Y-62635714D02*
X95313457Y-62650000D01*
X95313457Y-62650000D02*
X95342028Y-62664286D01*
X95342028Y-62664286D02*
X95370600Y-62692857D01*
X95370600Y-62692857D02*
X95384885Y-62735714D01*
X95384885Y-62735714D02*
X95384885Y-62807143D01*
X95099171Y-62350000D02*
X95084885Y-62378572D01*
X95084885Y-62378572D02*
X95084885Y-62421429D01*
X95084885Y-62421429D02*
X95099171Y-62464286D01*
X95099171Y-62464286D02*
X95127742Y-62492857D01*
X95127742Y-62492857D02*
X95156314Y-62507143D01*
X95156314Y-62507143D02*
X95213457Y-62521429D01*
X95213457Y-62521429D02*
X95256314Y-62521429D01*
X95256314Y-62521429D02*
X95313457Y-62507143D01*
X95313457Y-62507143D02*
X95342028Y-62492857D01*
X95342028Y-62492857D02*
X95370600Y-62464286D01*
X95370600Y-62464286D02*
X95384885Y-62421429D01*
X95384885Y-62421429D02*
X95384885Y-62392857D01*
X95384885Y-62392857D02*
X95370600Y-62350000D01*
X95370600Y-62350000D02*
X95356314Y-62335714D01*
X95356314Y-62335714D02*
X95256314Y-62335714D01*
X95256314Y-62335714D02*
X95256314Y-62392857D01*
X95370600Y-62221429D02*
X95384885Y-62178572D01*
X95384885Y-62178572D02*
X95384885Y-62107143D01*
X95384885Y-62107143D02*
X95370600Y-62078572D01*
X95370600Y-62078572D02*
X95356314Y-62064286D01*
X95356314Y-62064286D02*
X95327742Y-62050000D01*
X95327742Y-62050000D02*
X95299171Y-62050000D01*
X95299171Y-62050000D02*
X95270600Y-62064286D01*
X95270600Y-62064286D02*
X95256314Y-62078572D01*
X95256314Y-62078572D02*
X95242028Y-62107143D01*
X95242028Y-62107143D02*
X95227742Y-62164286D01*
X95227742Y-62164286D02*
X95213457Y-62192857D01*
X95213457Y-62192857D02*
X95199171Y-62207143D01*
X95199171Y-62207143D02*
X95170600Y-62221429D01*
X95170600Y-62221429D02*
X95142028Y-62221429D01*
X95142028Y-62221429D02*
X95113457Y-62207143D01*
X95113457Y-62207143D02*
X95099171Y-62192857D01*
X95099171Y-62192857D02*
X95084885Y-62164286D01*
X95084885Y-62164286D02*
X95084885Y-62092857D01*
X95084885Y-62092857D02*
X95099171Y-62050000D01*
D10*
X98303800Y-64642857D02*
X98332371Y-64557143D01*
X98332371Y-64557143D02*
X98332371Y-64414285D01*
X98332371Y-64414285D02*
X98303800Y-64357143D01*
X98303800Y-64357143D02*
X98275228Y-64328571D01*
X98275228Y-64328571D02*
X98218085Y-64300000D01*
X98218085Y-64300000D02*
X98160942Y-64300000D01*
X98160942Y-64300000D02*
X98103800Y-64328571D01*
X98103800Y-64328571D02*
X98075228Y-64357143D01*
X98075228Y-64357143D02*
X98046657Y-64414285D01*
X98046657Y-64414285D02*
X98018085Y-64528571D01*
X98018085Y-64528571D02*
X97989514Y-64585714D01*
X97989514Y-64585714D02*
X97960942Y-64614285D01*
X97960942Y-64614285D02*
X97903800Y-64642857D01*
X97903800Y-64642857D02*
X97846657Y-64642857D01*
X97846657Y-64642857D02*
X97789514Y-64614285D01*
X97789514Y-64614285D02*
X97760942Y-64585714D01*
X97760942Y-64585714D02*
X97732371Y-64528571D01*
X97732371Y-64528571D02*
X97732371Y-64385714D01*
X97732371Y-64385714D02*
X97760942Y-64300000D01*
X98332371Y-64042856D02*
X97732371Y-64042856D01*
X98332371Y-63785714D02*
X98018085Y-63785714D01*
X98018085Y-63785714D02*
X97960942Y-63814285D01*
X97960942Y-63814285D02*
X97932371Y-63871428D01*
X97932371Y-63871428D02*
X97932371Y-63957142D01*
X97932371Y-63957142D02*
X97960942Y-64014285D01*
X97960942Y-64014285D02*
X97989514Y-64042856D01*
X98332371Y-63499999D02*
X97932371Y-63499999D01*
X97732371Y-63499999D02*
X97760942Y-63528571D01*
X97760942Y-63528571D02*
X97789514Y-63499999D01*
X97789514Y-63499999D02*
X97760942Y-63471428D01*
X97760942Y-63471428D02*
X97732371Y-63499999D01*
X97732371Y-63499999D02*
X97789514Y-63499999D01*
X97932371Y-63214285D02*
X98532371Y-63214285D01*
X97960942Y-63214285D02*
X97932371Y-63157143D01*
X97932371Y-63157143D02*
X97932371Y-63042857D01*
X97932371Y-63042857D02*
X97960942Y-62985714D01*
X97960942Y-62985714D02*
X97989514Y-62957143D01*
X97989514Y-62957143D02*
X98046657Y-62928571D01*
X98046657Y-62928571D02*
X98218085Y-62928571D01*
X98218085Y-62928571D02*
X98275228Y-62957143D01*
X98275228Y-62957143D02*
X98303800Y-62985714D01*
X98303800Y-62985714D02*
X98332371Y-63042857D01*
X98332371Y-63042857D02*
X98332371Y-63157143D01*
X98332371Y-63157143D02*
X98303800Y-63214285D01*
X98332371Y-62357143D02*
X98332371Y-62700000D01*
X98332371Y-62528571D02*
X97732371Y-62528571D01*
X97732371Y-62528571D02*
X97818085Y-62585714D01*
X97818085Y-62585714D02*
X97875228Y-62642857D01*
X97875228Y-62642857D02*
X97903800Y-62700000D01*
X96420000Y-57422371D02*
X96220000Y-57136657D01*
X96077143Y-57422371D02*
X96077143Y-56822371D01*
X96077143Y-56822371D02*
X96305714Y-56822371D01*
X96305714Y-56822371D02*
X96362857Y-56850942D01*
X96362857Y-56850942D02*
X96391428Y-56879514D01*
X96391428Y-56879514D02*
X96420000Y-56936657D01*
X96420000Y-56936657D02*
X96420000Y-57022371D01*
X96420000Y-57022371D02*
X96391428Y-57079514D01*
X96391428Y-57079514D02*
X96362857Y-57108085D01*
X96362857Y-57108085D02*
X96305714Y-57136657D01*
X96305714Y-57136657D02*
X96077143Y-57136657D01*
X96991428Y-57422371D02*
X96648571Y-57422371D01*
X96820000Y-57422371D02*
X96820000Y-56822371D01*
X96820000Y-56822371D02*
X96762857Y-56908085D01*
X96762857Y-56908085D02*
X96705714Y-56965228D01*
X96705714Y-56965228D02*
X96648571Y-56993800D01*
X96420000Y-52342371D02*
X96220000Y-52056657D01*
X96077143Y-52342371D02*
X96077143Y-51742371D01*
X96077143Y-51742371D02*
X96305714Y-51742371D01*
X96305714Y-51742371D02*
X96362857Y-51770942D01*
X96362857Y-51770942D02*
X96391428Y-51799514D01*
X96391428Y-51799514D02*
X96420000Y-51856657D01*
X96420000Y-51856657D02*
X96420000Y-51942371D01*
X96420000Y-51942371D02*
X96391428Y-51999514D01*
X96391428Y-51999514D02*
X96362857Y-52028085D01*
X96362857Y-52028085D02*
X96305714Y-52056657D01*
X96305714Y-52056657D02*
X96077143Y-52056657D01*
X96620000Y-51742371D02*
X96991428Y-51742371D01*
X96991428Y-51742371D02*
X96791428Y-51970942D01*
X96791428Y-51970942D02*
X96877143Y-51970942D01*
X96877143Y-51970942D02*
X96934286Y-51999514D01*
X96934286Y-51999514D02*
X96962857Y-52028085D01*
X96962857Y-52028085D02*
X96991428Y-52085228D01*
X96991428Y-52085228D02*
X96991428Y-52228085D01*
X96991428Y-52228085D02*
X96962857Y-52285228D01*
X96962857Y-52285228D02*
X96934286Y-52313800D01*
X96934286Y-52313800D02*
X96877143Y-52342371D01*
X96877143Y-52342371D02*
X96705714Y-52342371D01*
X96705714Y-52342371D02*
X96648571Y-52313800D01*
X96648571Y-52313800D02*
X96620000Y-52285228D01*
M02*
