%TF.GenerationSoftware,KiCad,Pcbnew,8.0.8*%
%TF.CreationDate,2025-01-25T22:43:36+07:00*%
%TF.ProjectId,Pton1,50746f6e-312e-46b6-9963-61645f706362,rev?*%
%TF.SameCoordinates,Original*%
%TF.FileFunction,Legend,Top*%
%TF.FilePolarity,Positive*%
%FSLAX46Y46*%
G04 Gerber Fmt 4.6, Leading zero omitted, Abs format (unit mm)*
G04 Created by KiCad (PCBNEW 8.0.8) date 2025-01-25 22:43:36*
%MOMM*%
%LPD*%
G01*
G04 APERTURE LIST*
%ADD10C,0.120000*%
%ADD11C,0.150000*%
G04 APERTURE END LIST*
D10*
%TO.C,C2*%
X96035000Y-46517500D02*
X96035000Y-44207500D01*
X94465000Y-46517500D02*
X96035000Y-46517500D01*
X94465000Y-44207500D02*
X94465000Y-46517500D01*
%TO.C,R4*%
X98396359Y-54230000D02*
X98703641Y-54230000D01*
X98396359Y-54990000D02*
X98703641Y-54990000D01*
%TO.C,J2*%
X88840000Y-66040000D02*
X88840000Y-43120000D01*
X88840000Y-68640000D02*
X88840000Y-67310000D01*
X90170000Y-68640000D02*
X88840000Y-68640000D01*
X91500000Y-43120000D02*
X88840000Y-43120000D01*
X91500000Y-66040000D02*
X88840000Y-66040000D01*
X91500000Y-66040000D02*
X91500000Y-43120000D01*
%TO.C,C1*%
X100815000Y-61277500D02*
X100815000Y-63587500D01*
X102385000Y-61277500D02*
X100815000Y-61277500D01*
X102385000Y-63587500D02*
X102385000Y-61277500D01*
%TO.C,R2*%
X98703641Y-49150000D02*
X98396359Y-49150000D01*
X98703641Y-49910000D02*
X98396359Y-49910000D01*
%TO.C,FB1*%
X97100000Y-43540000D02*
X99320000Y-43540000D01*
X97100000Y-43750000D02*
X97100000Y-43540000D01*
X97100000Y-45360000D02*
X97100000Y-45150000D01*
X99320000Y-43750000D02*
X99320000Y-43540000D01*
X99320000Y-45150000D02*
X99320000Y-45360000D01*
X99320000Y-45360000D02*
X97100000Y-45360000D01*
%TO.C,FB2*%
X97100000Y-46080000D02*
X99320000Y-46080000D01*
X97100000Y-46290000D02*
X97100000Y-46080000D01*
X97100000Y-47900000D02*
X97100000Y-47690000D01*
X99320000Y-46290000D02*
X99320000Y-46080000D01*
X99320000Y-47690000D02*
X99320000Y-47900000D01*
X99320000Y-47900000D02*
X97100000Y-47900000D01*
D11*
%TO.C,Ship1*%
X96435000Y-61875000D02*
X96435000Y-65125000D01*
X96435000Y-61875000D02*
X96660000Y-61875000D01*
X96435000Y-65125000D02*
X96660000Y-65125000D01*
X99685000Y-61875000D02*
X99460000Y-61875000D01*
X99685000Y-61875000D02*
X99685000Y-65125000D01*
X99685000Y-65125000D02*
X99460000Y-65125000D01*
D10*
X99790000Y-61640000D02*
X99460000Y-61400000D01*
X99790000Y-61160000D01*
X99790000Y-61640000D01*
G36*
X99790000Y-61640000D02*
G01*
X99460000Y-61400000D01*
X99790000Y-61160000D01*
X99790000Y-61640000D01*
G37*
%TO.C,R1*%
X98703641Y-56770000D02*
X98396359Y-56770000D01*
X98703641Y-57530000D02*
X98396359Y-57530000D01*
%TO.C,R3*%
X98703641Y-51690000D02*
X98396359Y-51690000D01*
X98703641Y-52450000D02*
X98396359Y-52450000D01*
%TD*%
M02*
